<svg width="202" height="325" viewBox="0 0 202 325" fill="none" xmlns="http://www.w3.org/2000/svg">
<path d="M183.666 141.685C186.81 147.809 186.654 155.844 183.576 164.651C180.506 173.436 174.585 182.806 166.513 191.404C150.358 208.612 125.829 222.486 99 222.486C45.078 222.486 1.5 181 1.5 129.986C1.5 104.562 15.603 79.2031 35.6588 62.1606C55.6921 45.1373 81.3565 36.6557 104.417 44.3723C111.821 48.1625 114.922 53.198 115.835 58.7977C116.775 64.5641 115.421 71.0783 113.523 77.7646C113.016 79.5479 112.468 81.3511 111.922 83.1496C110.461 87.9528 109.012 92.7218 108.398 96.9843C107.547 102.902 108.206 108.475 113.094 112.181C119.055 116.7 125.43 118.478 131.833 119.228C135.024 119.602 138.238 119.722 141.405 119.795C142.14 119.812 142.871 119.827 143.599 119.841C146.029 119.889 148.424 119.936 150.809 120.074C156.987 120.432 162.875 121.392 168.358 124.435C173.82 127.465 179.023 132.644 183.666 141.685Z" stroke="black" stroke-width="3"/>
<circle cx="35.5" cy="142.5" r="13.5" stroke="black" stroke-width="2"/>
<circle cx="35.5" cy="103.5" r="11.5" stroke="black" stroke-width="2"/>
<circle cx="62.5" cy="171.5" r="13.5" stroke="black" stroke-width="2"/>
<circle cx="134" cy="162" r="23" stroke="black" stroke-width="2"/>
<path d="M150.385 54.8035C151.862 51.5676 155.532 49.9545 158.915 51.0538L171.263 55.0658C174.743 56.1964 176.765 59.8164 175.903 63.3724L165.506 106.259C164.546 110.22 160.417 112.526 156.54 111.267L136.192 104.655C132.215 103.363 130.251 98.8945 131.988 95.0904L150.385 54.8035Z" stroke="black" stroke-width="2"/>
<path d="M98.1414 267.139C96.735 270.576 91.5683 268.897 92.4507 265.29L131.367 106.213C131.781 104.519 133.549 103.534 135.208 104.073L158.311 111.579C159.97 112.118 160.821 113.954 160.161 115.569L98.1414 267.139Z" stroke="black" stroke-width="2"/>
<path d="M162.833 29.673C156.996 35.0817 152.3 42.0427 155.57 49.9669L172.689 55.5293L175.673 52.8186C186.202 42.8651 188.056 26.7846 180.067 14.6965L174.844 6.79174C174.352 6.04728 173.192 6.42432 173.232 7.31575C173.618 15.9757 169.191 23.781 162.833 29.673Z" stroke="black" stroke-width="2"/>
<line x1="157.214" y1="55.8658" x2="139.064" y2="96.2451" stroke="black" stroke-width="2" stroke-linecap="round"/>
</svg>
