<svg width="193" height="251" viewBox="0 0 193 251" fill="none" xmlns="http://www.w3.org/2000/svg">
<path d="M183.666 143.565C186.81 149.688 186.654 157.724 183.576 166.531C180.506 175.316 174.585 184.685 166.513 193.283C150.358 210.492 125.829 224.365 99 224.365C45.078 224.365 1.5 182.879 1.5 131.865C1.5 106.442 15.603 81.0829 35.6588 64.0404C55.6921 47.017 81.3565 38.5354 104.417 46.252C111.821 50.0422 114.922 55.0778 115.835 60.6774C116.775 66.4438 115.421 72.958 113.523 79.6444C113.016 81.4276 112.468 83.2308 111.922 85.0293C110.461 89.8325 109.012 94.6015 108.398 98.864C107.547 104.782 108.206 110.355 113.094 114.061C119.055 118.58 125.43 120.358 131.833 121.108C135.024 121.482 138.238 121.602 141.405 121.675C142.14 121.692 142.871 121.706 143.599 121.721C146.029 121.769 148.424 121.816 150.809 121.954C156.987 122.312 162.875 123.272 168.358 126.314C173.82 129.345 179.023 134.523 183.666 143.565Z" stroke="black" stroke-width="3"/>
<circle cx="35.5" cy="144.38" r="13.5" stroke="black" stroke-width="2"/>
<circle cx="35.5" cy="105.38" r="11.5" stroke="black" stroke-width="2"/>
<circle cx="62.5" cy="173.38" r="13.5" stroke="black" stroke-width="2"/>
<circle cx="134" cy="163.88" r="23" stroke="black" stroke-width="2"/>
<path d="M145.627 55.3258C146.846 51.9839 150.378 50.0879 153.837 50.9184L166.461 53.9492C170.019 54.8034 172.319 58.2535 171.739 61.8661L164.739 105.436C164.092 109.461 160.157 112.084 156.193 111.132L135.39 106.138C131.323 105.161 129.014 100.861 130.448 96.9319L145.627 55.3258Z" stroke="black" stroke-width="2"/>
<path d="M134.312 105.622L157.935 111.293C159.645 111.704 160.637 113.489 160.082 115.158L118.589 239.852C117.694 242.542 114.89 244.1 112.134 243.438C109.329 242.765 107.532 240.027 108.03 237.186L130.657 108.021C130.956 106.317 132.63 105.218 134.312 105.622Z" stroke="black" stroke-width="2"/>
<path d="M156.065 29.2961C150.671 35.1461 146.535 42.4541 150.417 50.0973L167.92 54.2993L170.682 51.3629C180.397 40.614 180.984 24.4377 172.072 13.0136L166.244 5.54303C165.695 4.83948 164.568 5.30635 164.678 6.19192C165.742 14.7948 161.941 22.9234 156.065 29.2961Z" stroke="black" stroke-width="2"/>
<line x1="152.518" y1="55.849" x2="137.592" y2="97.5279" stroke="black" stroke-width="2" stroke-linecap="round"/>
</svg>
