<svg width="249" height="283" viewBox="0 0 249 283" fill="none" xmlns="http://www.w3.org/2000/svg">
<path d="M183.666 120.685C186.81 126.809 186.654 134.844 183.576 143.651C180.506 152.436 174.585 161.806 166.513 170.404C150.358 187.612 125.829 201.486 99 201.486C45.078 201.486 1.5 160 1.5 108.986C1.5 83.5621 15.603 58.2032 35.6588 41.1607C55.6921 24.1373 81.3565 15.6558 104.417 23.3723C111.821 27.1625 114.922 32.1981 115.835 37.7977C116.775 43.5641 115.421 50.0783 113.523 56.7647C113.016 58.5479 112.468 60.3512 111.922 62.1496C110.461 66.9528 109.012 71.7219 108.398 75.9843C107.547 81.9023 108.206 87.4755 113.094 91.181C119.055 95.7 125.43 97.4783 131.833 98.2284C135.024 98.6023 138.238 98.7222 141.405 98.7952C142.14 98.8122 142.871 98.8266 143.599 98.841C146.029 98.889 148.424 98.9362 150.809 99.0743C156.987 99.432 162.875 100.392 168.358 103.435C173.82 106.465 179.023 111.644 183.666 120.685Z" stroke="black" stroke-width="3"/>
<circle cx="35.5" cy="121.5" r="13.5" stroke="black" stroke-width="2"/>
<circle cx="35.5" cy="82.5" r="11.5" stroke="black" stroke-width="2"/>
<circle cx="62.5" cy="150.5" r="13.5" stroke="black" stroke-width="2"/>
<circle cx="134" cy="141" r="23" stroke="black" stroke-width="2"/>
<path d="M196.029 47.0737L206.19 55.1558C209.053 57.4336 209.679 61.5324 207.627 64.5613L182.869 101.091C180.582 104.465 175.907 105.179 172.717 102.642L155.973 89.3231C152.7 86.7197 152.426 81.8462 155.385 78.8913L186.725 47.5984C189.243 45.0849 193.245 44.8592 196.029 47.0737Z" stroke="black" stroke-width="2"/>
<path d="M58.7465 224.466L150.908 89.0922C151.89 87.6502 153.89 87.3467 155.255 88.4327L174.266 103.555C175.632 104.641 175.786 106.658 174.602 107.939L63.4293 228.191C60.9083 230.918 56.6567 227.536 58.7465 224.466Z" stroke="black" stroke-width="2"/>
<path d="M207.186 28.4188C199.825 31.4409 192.988 36.3165 193.276 44.8843L207.363 56.0895L211.107 54.5954C224.456 48.9597 231.824 34.5467 228.574 20.4265L226.45 11.1929C226.249 10.3233 225.031 10.2703 224.756 11.1192C222.085 19.3661 215.205 25.1267 207.186 28.4188Z" stroke="black" stroke-width="2"/>
<line x1="192.75" y1="50.9851" x2="161.608" y2="82.451" stroke="black" stroke-width="2" stroke-linecap="round"/>
</svg>
