<svg width="259" height="110" viewBox="0 0 259 110" fill="none" xmlns="http://www.w3.org/2000/svg">
<mask id="path-1-inside-1_21_2" fill="white">
<path fill-rule="evenodd" clip-rule="evenodd" d="M259 0H0V95H259V0ZM129.5 69C165.122 69 194 58.031 194 44.5C194 30.969 165.122 20 129.5 20C93.8776 20 65 30.969 65 44.5C65 58.031 93.8776 69 129.5 69Z"/>
</mask>
<path d="M0 0V-7H-7V0H0ZM259 0H266V-7H259V0ZM0 95H-7V102H0V95ZM259 95V102H266V95H259ZM0 7H259V-7H0V7ZM7 95V0H-7V95H7ZM259 88H0V102H259V88ZM252 0V95H266V0H252ZM187 44.5C187 45.1977 186.654 46.6733 184.254 48.8284C181.857 50.981 177.994 53.2401 172.623 55.2803C161.93 59.342 146.685 62 129.5 62V76C147.937 76 164.943 73.1735 177.594 68.3679C183.895 65.9745 189.478 62.9543 193.608 59.2446C197.736 55.5374 201 50.5678 201 44.5H187ZM129.5 27C146.685 27 161.93 29.658 172.623 33.7197C177.994 35.7599 181.857 38.019 184.254 40.1716C186.654 42.3267 187 43.8023 187 44.5H201C201 38.4322 197.736 33.4626 193.608 29.7554C189.478 26.0457 183.895 23.0255 177.594 20.6321C164.943 15.8265 147.937 13 129.5 13V27ZM72 44.5C72 43.8023 72.3462 42.3267 74.7459 40.1716C77.1428 38.019 81.0061 35.7599 86.3772 33.7197C97.0704 29.658 112.315 27 129.5 27V13C111.063 13 94.0572 15.8265 81.406 20.6321C75.1049 23.0255 69.5224 26.0457 65.3916 29.7554C61.2635 33.4626 58 38.4322 58 44.5H72ZM129.5 62C112.315 62 97.0704 59.342 86.3772 55.2803C81.0061 53.2401 77.1428 50.981 74.7459 48.8284C72.3462 46.6733 72 45.1977 72 44.5H58C58 50.5678 61.2635 55.5374 65.3916 59.2446C69.5224 62.9543 75.1049 65.9745 81.406 68.3679C94.0572 73.1735 111.063 76 129.5 76V62Z" fill="#C06F25" mask="url(#path-1-inside-1_21_2)"/>
<rect x="3.5" y="93.5" width="252" height="13" stroke="#C06F25" stroke-width="7"/>
</svg>
