<svg width="235" height="235" viewBox="0 0 235 235" fill="none" xmlns="http://www.w3.org/2000/svg">
<mask id="path-1-inside-1_9_99" fill="white">
<path fill-rule="evenodd" clip-rule="evenodd" d="M96.8002 9.98641C97.7819 4.21893 102.78 0 108.63 0H126.37C132.22 0 137.218 4.21893 138.2 9.98641L140.918 25.9552C150.337 28.3305 159.21 32.0763 167.314 36.9681L178.549 29.0017C183.321 25.6176 189.838 26.1683 193.975 30.3052L206.519 42.8492C210.656 46.9861 211.207 53.5032 207.823 58.2756L199.998 69.3111C204.767 77.0283 208.491 85.4605 210.97 94.4098L225.014 96.8002C230.781 97.7819 235 102.78 235 108.63V126.37C235 132.22 230.781 137.218 225.014 138.2L212.481 140.333C210.392 150.444 206.737 159.983 201.781 168.684L208.661 178.387C212.045 183.159 211.494 189.676 207.357 193.813L194.813 206.357C190.676 210.494 184.159 211.045 179.387 207.661L170.985 201.703C161.621 207.941 151.117 212.602 139.852 215.307L138.2 225.014C137.218 230.781 132.22 235 126.37 235H108.63C102.78 235 97.7819 230.781 96.8002 225.014L95.1896 215.551C84.5566 213.121 74.5859 208.953 65.5923 203.362L55.7756 210.323C51.0032 213.707 44.486 213.156 40.3491 209.019L27.8051 196.475C23.6682 192.338 23.1176 185.821 26.5016 181.049L33.6021 171.035C27.91 161.662 23.7537 151.253 21.4823 140.157L9.98641 138.2C4.21893 137.218 0 132.22 0 126.37V108.63C0 102.78 4.21893 97.7819 9.98641 96.8002L22.9807 94.5884C25.703 84.6881 29.9473 75.4182 35.446 67.0458L27.3394 55.6134C23.9554 50.841 24.506 44.3238 28.6429 40.187L41.1869 27.6429C45.3238 23.5061 51.841 22.9554 56.6134 26.3394L69.3863 35.3966C77.0524 31.0983 85.3585 27.8059 94.1258 25.6981L96.8002 9.98641Z"/>
</mask>
<path d="M96.8002 9.98641L104.687 11.3288V11.3288L96.8002 9.98641ZM138.2 9.98641L146.086 8.64401V8.644L138.2 9.98641ZM140.918 25.9552L133.031 27.2976L133.906 32.4374L138.962 33.7123L140.918 25.9552ZM167.314 36.9681L163.18 43.8171L167.667 46.5253L171.941 43.494L167.314 36.9681ZM178.549 29.0017L183.176 35.5275L178.549 29.0017ZM193.975 30.3052L199.632 24.6483L199.632 24.6483L193.975 30.3052ZM206.519 42.8492L200.862 48.506L200.862 48.506L206.519 42.8492ZM207.823 58.2756L201.297 53.6482V53.6482L207.823 58.2756ZM199.998 69.3111L193.472 64.6837L190.405 69.0079L193.192 73.5171L199.998 69.3111ZM210.97 94.4098L203.26 96.5457L204.617 101.444L209.628 102.296L210.97 94.4098ZM225.014 96.8002L226.356 88.9136L225.014 96.8002ZM225.014 138.2L226.356 146.086H226.356L225.014 138.2ZM212.481 140.333L211.139 132.446L205.753 133.363L204.647 138.714L212.481 140.333ZM201.781 168.684L194.829 164.725L192.307 169.154L195.255 173.312L201.781 168.684ZM208.661 178.387L215.186 173.759L208.661 178.387ZM179.387 207.661L184.014 201.135L179.387 207.661ZM170.985 201.703L175.612 195.177L171.126 191.996L166.55 195.045L170.985 201.703ZM139.852 215.307L137.984 207.528L132.851 208.761L131.965 213.965L139.852 215.307ZM138.2 225.014L146.086 226.356L138.2 225.014ZM96.8002 225.014L88.9136 226.356L96.8002 225.014ZM95.1896 215.551L103.076 214.209L102.18 208.942L96.9717 207.752L95.1896 215.551ZM65.5923 203.362L69.8162 196.568L65.3014 193.761L60.9648 196.836L65.5923 203.362ZM55.7756 210.323L60.403 216.849H60.403L55.7756 210.323ZM40.3491 209.019L46.006 203.362L46.006 203.362L40.3491 209.019ZM27.8051 196.475L22.1483 202.132L22.1483 202.132L27.8051 196.475ZM26.5016 181.049L19.9757 176.421L26.5016 181.049ZM33.6021 171.035L40.1279 175.663L43.1681 171.375L40.44 166.883L33.6021 171.035ZM21.4823 140.157L29.3197 138.552L28.2218 133.189L22.8247 132.27L21.4823 140.157ZM9.98641 138.2L8.644 146.086H8.64401L9.98641 138.2ZM9.98641 96.8002L8.64401 88.9136H8.64401L9.98641 96.8002ZM22.9807 94.5884L24.3231 102.475L29.344 101.62L30.6943 96.7095L22.9807 94.5884ZM35.446 67.0458L42.1328 71.4375L45.1307 66.873L41.9719 62.4184L35.446 67.0458ZM27.3394 55.6134L20.8135 60.2408L27.3394 55.6134ZM28.6429 40.187L22.9861 34.5301L22.9861 34.5301L28.6429 40.187ZM41.1869 27.6429L46.8438 33.2998H46.8438L41.1869 27.6429ZM56.6134 26.3394L61.2408 19.8136L61.2408 19.8136L56.6134 26.3394ZM69.3863 35.3966L64.7589 41.9225L68.8858 44.8488L73.2987 42.3746L69.3863 35.3966ZM94.1258 25.6981L95.9959 33.4765L101.127 32.2429L102.012 27.0405L94.1258 25.6981ZM108.63 -8C98.8793 -8 90.5498 -0.968453 88.9136 8.64401L104.687 11.3288C105.014 9.40631 106.68 8 108.63 8V-8ZM126.37 -8H108.63V8H126.37V-8ZM146.086 8.644C144.45 -0.968444 136.121 -8 126.37 -8V8C128.32 8 129.986 9.40631 130.313 11.3288L146.086 8.644ZM148.804 24.6128L146.086 8.64401L130.313 11.3288L133.031 27.2976L148.804 24.6128ZM171.448 30.1191C162.679 24.8256 153.073 20.7701 142.874 18.1981L138.962 33.7123C147.6 35.891 155.741 39.327 163.18 43.8171L171.448 30.1191ZM171.941 43.494L183.176 35.5275L173.921 22.4758L162.687 30.4422L171.941 43.494ZM183.176 35.5275C184.767 34.3995 186.939 34.5831 188.318 35.962L199.632 24.6483C192.737 17.7535 181.875 16.8357 173.921 22.4758L183.176 35.5275ZM188.318 35.962L200.862 48.506L212.176 37.1923L199.632 24.6483L188.318 35.962ZM200.862 48.506C202.241 49.885 202.425 52.0574 201.297 53.6482L214.349 62.903C219.989 54.9491 219.071 44.0871 212.176 37.1923L200.862 48.506ZM201.297 53.6482L193.472 64.6837L206.523 73.9386L214.349 62.903L201.297 53.6482ZM218.68 92.2739C215.995 82.5835 211.964 73.4556 206.803 65.1051L193.192 73.5171C197.571 80.601 200.986 88.3375 203.26 96.5457L218.68 92.2739ZM226.356 88.9136L212.312 86.5232L209.628 102.296L223.671 104.687L226.356 88.9136ZM243 108.63C243 98.8793 235.968 90.5498 226.356 88.9136L223.671 104.687C225.594 105.014 227 106.68 227 108.63H243ZM243 126.37V108.63H227V126.37H243ZM226.356 146.086C235.968 144.45 243 136.121 243 126.37H227C227 128.32 225.594 129.986 223.671 130.313L226.356 146.086ZM213.824 148.22L226.356 146.086L223.671 130.313L211.139 132.446L213.824 148.22ZM208.732 172.644C214.096 163.227 218.054 152.9 220.316 141.952L204.647 138.714C202.73 147.989 199.378 156.739 194.829 164.725L208.732 172.644ZM215.186 173.759L208.307 164.057L195.255 173.312L202.135 183.014L215.186 173.759ZM213.014 199.47C219.909 192.575 220.827 181.713 215.186 173.759L202.135 183.014C203.263 184.605 203.079 186.777 201.7 188.156L213.014 199.47ZM200.47 212.014L213.014 199.47L201.7 188.156L189.156 200.7L200.47 212.014ZM174.759 214.186C182.713 219.827 193.575 218.909 200.47 212.014L189.156 200.7C187.777 202.079 185.605 202.263 184.014 201.135L174.759 214.186ZM166.357 208.229L174.759 214.186L184.014 201.135L175.612 195.177L166.357 208.229ZM141.72 223.086C153.918 220.156 165.289 215.11 175.42 208.361L166.55 195.045C157.953 200.771 148.316 205.047 137.984 207.528L141.72 223.086ZM146.086 226.356L147.739 216.65L131.965 213.965L130.313 223.671L146.086 226.356ZM126.37 243C136.121 243 144.45 235.968 146.086 226.356L130.313 223.671C129.986 225.594 128.32 227 126.37 227V243ZM108.63 243H126.37V227H108.63V243ZM88.9136 226.356C90.5498 235.968 98.8793 243 108.63 243V227C106.68 227 105.014 225.594 104.687 223.671L88.9136 226.356ZM87.303 216.894L88.9136 226.356L104.687 223.671L103.076 214.209L87.303 216.894ZM61.3683 210.156C71.1002 216.206 81.8941 220.719 93.4074 223.35L96.9717 207.752C87.2191 205.524 78.0716 201.7 69.8162 196.568L61.3683 210.156ZM60.9648 196.836L51.1481 203.797L60.403 216.849L70.2197 209.888L60.9648 196.836ZM51.1481 203.797C49.5573 204.925 47.385 204.741 46.006 203.362L34.6923 214.676C41.5871 221.571 52.449 222.489 60.403 216.849L51.1481 203.797ZM46.006 203.362L33.462 190.818L22.1483 202.132L34.6923 214.676L46.006 203.362ZM33.462 190.818C32.083 189.439 31.8995 187.267 33.0275 185.676L19.9757 176.421C14.3357 184.375 15.2535 195.237 22.1483 202.132L33.462 190.818ZM33.0275 185.676L40.1279 175.663L27.0762 166.408L19.9757 176.421L33.0275 185.676ZM13.6448 141.761C16.1042 153.775 20.6045 165.044 26.7641 175.188L40.44 166.883C35.2156 158.28 31.4032 148.73 29.3197 138.552L13.6448 141.761ZM8.64401 146.086L20.1399 148.043L22.8247 132.27L11.3288 130.313L8.64401 146.086ZM-8 126.37C-8 136.121 -0.968449 144.45 8.644 146.086L11.3288 130.313C9.40631 129.986 8 128.32 8 126.37H-8ZM-8 108.63V126.37H8V108.63H-8ZM8.64401 88.9136C-0.968447 90.5498 -8 98.8793 -8 108.63H8C8 106.68 9.40631 105.014 11.3288 104.687L8.64401 88.9136ZM21.6383 86.7018L8.64401 88.9136L11.3288 104.687L24.3231 102.475L21.6383 86.7018ZM28.7593 62.6541C22.8098 71.7127 18.2148 81.747 15.267 92.4673L30.6943 96.7095C33.1912 87.6293 37.0847 79.1237 42.1328 71.4375L28.7593 62.6541ZM20.8135 60.2408L28.9202 71.6732L41.9719 62.4184L33.8653 50.986L20.8135 60.2408ZM22.9861 34.5301C16.0913 41.4249 15.1735 52.2868 20.8135 60.2408L33.8653 50.986C32.7373 49.3952 32.9208 47.2228 34.2998 45.8438L22.9861 34.5301ZM35.5301 21.9861L22.9861 34.5301L34.2998 45.8438L46.8438 33.2998L35.5301 21.9861ZM61.2408 19.8136C53.2868 14.1735 42.4249 15.0913 35.5301 21.9861L46.8438 33.2998C48.2228 31.9208 50.3951 31.7373 51.9859 32.8653L61.2408 19.8136ZM74.0137 28.8707L61.2408 19.8136L51.9859 32.8653L64.7589 41.9225L74.0137 28.8707ZM92.2558 17.9198C82.7628 20.202 73.7705 23.7668 65.4739 28.4186L73.2987 42.3746C80.3343 38.4299 87.9542 35.4098 95.9959 33.4765L92.2558 17.9198ZM88.9136 8.64401L86.2393 24.3557L102.012 27.0405L104.687 11.3288L88.9136 8.64401Z" fill="#3D6D6D" mask="url(#path-1-inside-1_9_99)"/>
<circle cx="117.5" cy="117" r="7.5" stroke="#3D6D6D" stroke-width="5"/>
<path fill-rule="evenodd" clip-rule="evenodd" d="M42.5 157.17L48.2107 153.873C48.9587 155.367 49.7533 156.834 50.5926 158.271L45 161.5L42.5 157.17ZM75.0013 184.088L71.6699 189.858L76 192.358L79.2587 186.714C77.8097 185.883 76.39 185.007 75.0013 184.088ZM115 196.943V204H120V196.975C119.335 196.992 118.669 197 118 197C116.995 197 115.995 196.981 115 196.943ZM155.139 187.608L158.17 192.858L162.5 190.358L159.455 185.084C158.046 185.97 156.606 186.812 155.139 187.608ZM185.227 158.579L190.858 161.83L193.358 157.5L187.629 154.192C186.874 155.682 186.073 157.145 185.227 158.579ZM195.998 119.5H202V114.5H195.872C195.957 115.989 196 117.49 196 119C196 119.167 195.999 119.333 195.998 119.5ZM185.714 80.2587L191.358 77L188.858 72.6699L183.088 76.0013C184.007 77.39 184.883 78.8098 185.714 80.2587ZM157.271 51.5926L160.5 46L156.17 43.5L152.873 49.2107C154.367 49.9587 155.834 50.7533 157.271 51.5926ZM120 41.0251V35H115V41.0566C115.995 41.019 116.995 41 118 41C118.669 41 119.335 41.0084 120 41.0251ZM81.4944 50.0524L78 44L73.6699 46.5L77.155 52.5365C78.5721 51.6638 80.0192 50.8351 81.4944 50.0524ZM52.7154 76.2998L47 73L44.5 77.3301L50.1093 80.5686C50.9333 79.116 51.8027 77.6924 52.7154 76.2998ZM33 114.5H40.1276C40.0429 115.989 40 117.49 40 119C40 119.167 40.0005 119.333 40.0016 119.5H33V114.5Z" fill="black"/>
</svg>
