<svg width="236" height="235" viewBox="0 0 236 235" fill="none" xmlns="http://www.w3.org/2000/svg">
<mask id="path-1-inside-1_9_99" fill="white">
<path fill-rule="evenodd" clip-rule="evenodd" d="M97.3002 9.98641C98.2819 4.21893 103.28 0 109.13 0H126.87C132.72 0 137.718 4.21893 138.7 9.98641L141.418 25.9552C150.837 28.3305 159.71 32.0763 167.814 36.9681L179.049 29.0017C183.821 25.6176 190.338 26.1683 194.475 30.3052L207.019 42.8492C211.156 46.9861 211.707 53.5032 208.323 58.2756L200.498 69.3111C205.267 77.0283 208.991 85.4605 211.47 94.4098L225.514 96.8002C231.281 97.7819 235.5 102.78 235.5 108.63V126.37C235.5 132.22 231.281 137.218 225.514 138.2L212.981 140.333C210.892 150.444 207.237 159.983 202.281 168.684L209.161 178.387C212.545 183.159 211.994 189.676 207.857 193.813L195.313 206.357C191.176 210.494 184.659 211.045 179.887 207.661L171.485 201.703C162.121 207.941 151.617 212.602 140.352 215.307L138.7 225.014C137.718 230.781 132.72 235 126.87 235H109.13C103.28 235 98.2819 230.781 97.3002 225.014L95.6896 215.551C85.0566 213.121 75.0859 208.953 66.0923 203.362L56.2756 210.323C51.5032 213.707 44.986 213.156 40.8491 209.019L28.3051 196.475C24.1682 192.338 23.6176 185.821 27.0016 181.049L34.1021 171.035C28.41 161.662 24.2537 151.253 21.9823 140.157L10.4864 138.2C4.71893 137.218 0.5 132.22 0.5 126.37V108.63C0.5 102.78 4.71893 97.7819 10.4864 96.8002L23.4807 94.5884C26.203 84.6881 30.4473 75.4182 35.946 67.0458L27.8394 55.6134C24.4554 50.841 25.006 44.3238 29.1429 40.187L41.6869 27.6429C45.8238 23.5061 52.341 22.9554 57.1134 26.3394L69.8863 35.3966C77.5524 31.0983 85.8585 27.8059 94.6258 25.6981L97.3002 9.98641Z"/>
</mask>
<path d="M97.3002 9.98641L105.187 11.3288L105.187 11.3288L97.3002 9.98641ZM138.7 9.98641L146.586 8.64401L146.586 8.644L138.7 9.98641ZM141.418 25.9552L133.531 27.2976L134.406 32.4374L139.462 33.7123L141.418 25.9552ZM167.814 36.9681L163.68 43.8171L168.167 46.5253L172.442 43.494L167.814 36.9681ZM179.049 29.0017L183.676 35.5275L183.676 35.5275L179.049 29.0017ZM194.475 30.3052L200.132 24.6483L200.132 24.6483L194.475 30.3052ZM207.019 42.8492L201.362 48.506L201.362 48.506L207.019 42.8492ZM208.323 58.2756L201.797 53.6482L201.797 53.6482L208.323 58.2756ZM200.498 69.3111L193.972 64.6837L190.905 69.0079L193.692 73.5171L200.498 69.3111ZM211.47 94.4098L203.76 96.5457L205.117 101.444L210.128 102.296L211.47 94.4098ZM225.514 96.8002L226.856 88.9136L226.856 88.9136L225.514 96.8002ZM225.514 138.2L226.856 146.086L226.856 146.086L225.514 138.2ZM212.981 140.333L211.639 132.446L206.253 133.363L205.147 138.714L212.981 140.333ZM202.281 168.684L195.329 164.725L192.807 169.154L195.755 173.312L202.281 168.684ZM209.161 178.387L215.686 173.759L215.686 173.759L209.161 178.387ZM179.887 207.661L184.514 201.135L184.514 201.135L179.887 207.661ZM171.485 201.703L176.112 195.177L171.626 191.996L167.05 195.045L171.485 201.703ZM140.352 215.307L138.484 207.528L133.351 208.761L132.465 213.965L140.352 215.307ZM138.7 225.014L146.586 226.356L146.586 226.356L138.7 225.014ZM97.3002 225.014L89.4136 226.356L97.3002 225.014ZM95.6896 215.551L103.576 214.209L102.68 208.942L97.4717 207.752L95.6896 215.551ZM66.0923 203.362L70.3162 196.568L65.8014 193.761L61.4648 196.836L66.0923 203.362ZM56.2756 210.323L60.903 216.849L60.903 216.849L56.2756 210.323ZM40.8491 209.019L46.506 203.362L46.506 203.362L40.8491 209.019ZM28.3051 196.475L22.6483 202.132L22.6483 202.132L28.3051 196.475ZM27.0016 181.049L20.4757 176.421L20.4757 176.421L27.0016 181.049ZM34.1021 171.035L40.6279 175.663L43.6681 171.375L40.94 166.883L34.1021 171.035ZM21.9823 140.157L29.8197 138.552L28.7218 133.189L23.3247 132.27L21.9823 140.157ZM10.4864 138.2L9.144 146.086L9.14401 146.086L10.4864 138.2ZM10.4864 96.8002L9.14401 88.9136L9.14401 88.9136L10.4864 96.8002ZM23.4807 94.5884L24.8231 102.475L29.844 101.62L31.1943 96.7095L23.4807 94.5884ZM35.946 67.0458L42.6328 71.4375L45.6307 66.873L42.4719 62.4184L35.946 67.0458ZM27.8394 55.6134L21.3135 60.2408L21.3135 60.2408L27.8394 55.6134ZM29.1429 40.187L23.4861 34.5301L23.4861 34.5301L29.1429 40.187ZM41.6869 27.6429L47.3438 33.2998L47.3438 33.2998L41.6869 27.6429ZM57.1134 26.3394L61.7408 19.8136L61.7408 19.8136L57.1134 26.3394ZM69.8863 35.3966L65.2589 41.9225L69.3858 44.8488L73.7987 42.3746L69.8863 35.3966ZM94.6258 25.6981L96.4959 33.4765L101.627 32.2429L102.512 27.0405L94.6258 25.6981ZM109.13 -8C99.3793 -8 91.0498 -0.968453 89.4136 8.64401L105.187 11.3288C105.514 9.40631 107.18 8 109.13 8V-8ZM126.87 -8H109.13V8H126.87V-8ZM146.586 8.644C144.95 -0.968444 136.621 -8 126.87 -8V8C128.82 8 130.486 9.40631 130.813 11.3288L146.586 8.644ZM149.304 24.6128L146.586 8.64401L130.813 11.3288L133.531 27.2976L149.304 24.6128ZM171.948 30.1191C163.179 24.8256 153.573 20.7701 143.374 18.1981L139.462 33.7123C148.1 35.891 156.241 39.327 163.68 43.8171L171.948 30.1191ZM172.442 43.494L183.676 35.5275L174.421 22.4758L163.187 30.4422L172.442 43.494ZM183.676 35.5275C185.267 34.3995 187.439 34.5831 188.818 35.962L200.132 24.6483C193.237 17.7535 182.375 16.8357 174.421 22.4758L183.676 35.5275ZM188.818 35.962L201.362 48.506L212.676 37.1923L200.132 24.6483L188.818 35.962ZM201.362 48.506C202.741 49.885 202.925 52.0574 201.797 53.6482L214.849 62.9031C220.489 54.9491 219.571 44.0871 212.676 37.1923L201.362 48.506ZM201.797 53.6482L193.972 64.6837L207.023 73.9386L214.849 62.903L201.797 53.6482ZM219.18 92.2739C216.495 82.5835 212.464 73.4556 207.303 65.1051L193.692 73.5171C198.071 80.601 201.486 88.3375 203.76 96.5457L219.18 92.2739ZM226.856 88.9136L212.812 86.5232L210.128 102.296L224.171 104.687L226.856 88.9136ZM243.5 108.63C243.5 98.8793 236.468 90.5498 226.856 88.9136L224.171 104.687C226.094 105.014 227.5 106.68 227.5 108.63H243.5ZM243.5 126.37V108.63H227.5V126.37H243.5ZM226.856 146.086C236.468 144.45 243.5 136.121 243.5 126.37H227.5C227.5 128.32 226.094 129.986 224.171 130.313L226.856 146.086ZM214.324 148.22L226.856 146.086L224.171 130.313L211.639 132.446L214.324 148.22ZM209.232 172.644C214.596 163.227 218.554 152.9 220.816 141.952L205.147 138.714C203.23 147.989 199.878 156.739 195.329 164.725L209.232 172.644ZM215.686 173.759L208.807 164.057L195.755 173.312L202.635 183.014L215.686 173.759ZM213.514 199.47C220.409 192.575 221.327 181.713 215.686 173.759L202.635 183.014C203.763 184.605 203.579 186.777 202.2 188.156L213.514 199.47ZM200.97 212.014L213.514 199.47L202.2 188.156L189.656 200.7L200.97 212.014ZM175.259 214.186C183.213 219.827 194.075 218.909 200.97 212.014L189.656 200.7C188.277 202.079 186.105 202.263 184.514 201.135L175.259 214.186ZM166.857 208.229L175.259 214.186L184.514 201.135L176.112 195.177L166.857 208.229ZM142.22 223.086C154.418 220.156 165.789 215.11 175.92 208.361L167.05 195.045C158.453 200.771 148.816 205.047 138.484 207.528L142.22 223.086ZM146.586 226.356L148.239 216.65L132.465 213.965L130.813 223.671L146.586 226.356ZM126.87 243C136.621 243 144.95 235.968 146.586 226.356L130.813 223.671C130.486 225.594 128.82 227 126.87 227V243ZM109.13 243H126.87V227H109.13V243ZM89.4136 226.356C91.0498 235.968 99.3793 243 109.13 243V227C107.18 227 105.514 225.594 105.187 223.671L89.4136 226.356ZM87.803 216.894L89.4136 226.356L105.187 223.671L103.576 214.209L87.803 216.894ZM61.8683 210.156C71.6002 216.206 82.3941 220.719 93.9074 223.35L97.4717 207.752C87.7191 205.524 78.5716 201.7 70.3162 196.568L61.8683 210.156ZM61.4648 196.836L51.6481 203.797L60.903 216.849L70.7197 209.888L61.4648 196.836ZM51.6481 203.797C50.0573 204.925 47.885 204.741 46.506 203.362L35.1923 214.676C42.0871 221.571 52.949 222.489 60.903 216.849L51.6481 203.797ZM46.506 203.362L33.962 190.818L22.6483 202.132L35.1923 214.676L46.506 203.362ZM33.962 190.818C32.583 189.439 32.3995 187.267 33.5275 185.676L20.4757 176.421C14.8357 184.375 15.7535 195.237 22.6483 202.132L33.962 190.818ZM33.5275 185.676L40.6279 175.663L27.5762 166.408L20.4757 176.421L33.5275 185.676ZM14.1448 141.761C16.6042 153.775 21.1045 165.044 27.2641 175.188L40.94 166.883C35.7156 158.28 31.9032 148.73 29.8197 138.552L14.1448 141.761ZM9.14401 146.086L20.6399 148.043L23.3247 132.27L11.8288 130.313L9.14401 146.086ZM-7.5 126.37C-7.5 136.121 -0.468449 144.45 9.144 146.086L11.8288 130.313C9.90631 129.986 8.5 128.32 8.5 126.37H-7.5ZM-7.5 108.63V126.37H8.5V108.63H-7.5ZM9.14401 88.9136C-0.468447 90.5498 -7.5 98.8793 -7.5 108.63H8.5C8.5 106.68 9.90631 105.014 11.8288 104.687L9.14401 88.9136ZM22.1383 86.7018L9.14401 88.9136L11.8288 104.687L24.8231 102.475L22.1383 86.7018ZM29.2593 62.6541C23.3098 71.7127 18.7148 81.747 15.767 92.4673L31.1943 96.7095C33.6912 87.6293 37.5847 79.1237 42.6328 71.4375L29.2593 62.6541ZM21.3135 60.2408L29.4202 71.6732L42.4719 62.4184L34.3653 50.986L21.3135 60.2408ZM23.4861 34.5301C16.5913 41.4249 15.6735 52.2868 21.3135 60.2408L34.3653 50.986C33.2373 49.3952 33.4208 47.2228 34.7998 45.8438L23.4861 34.5301ZM36.0301 21.9861L23.4861 34.5301L34.7998 45.8438L47.3438 33.2998L36.0301 21.9861ZM61.7408 19.8136C53.7868 14.1735 42.9249 15.0913 36.0301 21.9861L47.3438 33.2998C48.7228 31.9208 50.8951 31.7373 52.4859 32.8653L61.7408 19.8136ZM74.5137 28.8707L61.7408 19.8136L52.4859 32.8653L65.2589 41.9225L74.5137 28.8707ZM92.7558 17.9198C83.2628 20.202 74.2705 23.7668 65.9739 28.4186L73.7987 42.3746C80.8343 38.4299 88.4542 35.4098 96.4959 33.4765L92.7558 17.9198ZM89.4136 8.64401L86.7393 24.3557L102.512 27.0405L105.187 11.3288L89.4136 8.64401Z" fill="black" mask="url(#path-1-inside-1_9_99)"/>
<circle cx="118" cy="117" r="7.5" stroke="black" stroke-width="5"/>
<line x1="117.5" y1="35" x2="117.5" y2="49" stroke="black" stroke-width="5"/>
<line x1="31" y1="117.5" x2="45" y2="117.5" stroke="black" stroke-width="5"/>
<line x1="190" y1="117.5" x2="204" y2="117.5" stroke="black" stroke-width="5"/>
<line x1="168.232" y1="66.1317" x2="178.132" y2="56.2322" stroke="black" stroke-width="5"/>
<line y1="-2.5" x2="14" y2="-2.5" transform="matrix(0.707107 0.707107 0.707107 -0.707107 170 167)" stroke="black" stroke-width="5"/>
<line y1="-2.5" x2="14" y2="-2.5" transform="matrix(-0.707107 -0.707107 -0.707107 0.707107 67.8995 67.8995)" stroke="black" stroke-width="5"/>
<line x1="69.6672" y1="168.768" x2="59.7677" y2="178.667" stroke="black" stroke-width="5"/>
<line x1="117.5" y1="194" x2="117.5" y2="208" stroke="black" stroke-width="5"/>
</svg>
