<?xml version="1.0" encoding="UTF-8"?>
<svg width="187px" height="187px" viewBox="0 0 187 187" version="1.1" xmlns="http://www.w3.org/2000/svg" xmlns:xlink="http://www.w3.org/1999/xlink">
    <title>cogfg</title>
    <g id="Page-1" stroke="none" stroke-width="1" fill="none" fill-rule="evenodd">
        <g id="Mobile" transform="translate(-115.000000, -213.000000)">
            <g id="cogfg" transform="translate(115.869012, 213.869012)">
                <g id="Group" transform="translate(92.630988, 92.630988) rotate(45.000000) translate(-92.630988, -92.630988) translate(27.130988, 27.130988)" fill="#D8D8D8">
                    <path d="M60.6867212,0 L71.3132788,0 C75.0453601,-6.85572209e-16 78.281608,2.58051486 79.1124958,6.21892882 L82.7663419,22.2189288 C83.7500004,26.5263174 81.0555847,30.8155585 76.7481961,31.799217 C76.1639011,31.9326497 75.5664621,32 74.9671249,32 L57.0328751,32 C52.6145971,32 49.0328751,28.418278 49.0328751,24 C49.0328751,23.4006629 49.1002253,22.8032238 49.2336581,22.2189288 L52.8875042,6.21892882 C53.718392,2.58051486 56.9546399,2.46192905e-15 60.6867212,0 Z" id="Rectangle"></path>
                    <path d="M109.686721,50 L120.313279,50 C124.04536,50 127.281608,52.5805149 128.112496,56.2189288 L131.766342,72.2189288 C132.75,76.5263174 130.055585,80.8155585 125.748196,81.799217 C125.163901,81.9326497 124.566462,82 123.967125,82 L106.032875,82 C101.614597,82 98.0328751,78.418278 98.0328751,74 C98.0328751,73.4006629 98.1002253,72.8032238 98.2336581,72.2189288 L101.887504,56.2189288 C102.718392,52.5805149 105.95464,50 109.686721,50 Z" id="Rectangle-Copy-2" transform="translate(115.000000, 66.000000) rotate(90.000000) translate(-115.000000, -66.000000) "></path>
                    <path d="M10.6867212,50 L21.3132788,50 C25.0453601,50 28.281608,52.5805149 29.1124958,56.2189288 L32.7663419,72.2189288 C33.7500004,76.5263174 31.0555847,80.8155585 26.7481961,81.799217 C26.1639011,81.9326497 25.5664621,82 24.9671249,82 L7.03287506,82 C2.61459706,82 -0.967124941,78.418278 -0.967124941,74 C-0.967124941,73.4006629 -0.899774675,72.8032238 -0.766341917,72.2189288 L2.88750424,56.2189288 C3.71839204,52.5805149 6.95463993,50 10.6867212,50 Z" id="Rectangle-Copy-3" transform="translate(16.000000, 66.000000) scale(-1, 1) rotate(90.000000) translate(-16.000000, -66.000000) "></path>
                    <path d="M60.6867212,99 L71.3132788,99 C75.0453601,99 78.281608,101.580515 79.1124958,105.218929 L82.7663419,121.218929 C83.7500004,125.526317 81.0555847,129.815559 76.7481961,130.799217 C76.1639011,130.93265 75.5664621,131 74.9671249,131 L57.0328751,131 C52.6145971,131 49.0328751,127.418278 49.0328751,123 C49.0328751,122.400663 49.1002253,121.803224 49.2336581,121.218929 L52.8875042,105.218929 C53.718392,101.580515 56.9546399,99 60.6867212,99 Z" id="Rectangle-Copy" transform="translate(66.000000, 115.000000) scale(1, -1) translate(-66.000000, -115.000000) "></path>
                </g>
                <path d="M87.8177095,27.1309883 L98.4442671,27.1309883 C102.176348,27.1309883 105.412596,29.7115032 106.243484,33.3499172 L109.89733,49.3499172 C110.880989,53.6573057 108.186573,57.9465469 103.879184,58.9302053 C103.294889,59.0636381 102.69745,59.1309883 102.098113,59.1309883 L84.1638634,59.1309883 C79.7455854,59.1309883 76.1638634,55.5492663 76.1638634,51.1309883 C76.1638634,50.5316512 76.2312137,49.9342122 76.3646464,49.3499172 L80.0184926,33.3499172 C80.8493804,29.7115032 84.0856283,27.1309883 87.8177095,27.1309883 Z" id="Rectangle-Copy-4" fill="#D8D8D8"></path>
                <path d="M87.8177095,126.130988 L98.4442671,126.130988 C102.176348,126.130988 105.412596,128.711503 106.243484,132.349917 L109.89733,148.349917 C110.880989,152.657306 108.186573,156.946547 103.879184,157.930205 C103.294889,158.063638 102.69745,158.130988 102.098113,158.130988 L84.1638634,158.130988 C79.7455854,158.130988 76.1638634,154.549266 76.1638634,150.130988 C76.1638634,149.531651 76.2312137,148.934212 76.3646464,148.349917 L80.0184926,132.349917 C80.8493804,128.711503 84.0856283,126.130988 87.8177095,126.130988 Z" id="Rectangle-Copy-5" fill="#D8D8D8" transform="translate(93.130988, 142.130988) scale(1, -1) translate(-93.130988, -142.130988) "></path>
                <path d="M136.81771,77.1309883 L147.444267,77.1309883 C151.176348,77.1309883 154.412596,79.7115032 155.243484,83.3499172 L158.89733,99.3499172 C159.880989,103.657306 157.186573,107.946547 152.879184,108.930205 C152.294889,109.063638 151.69745,109.130988 151.098113,109.130988 L133.163863,109.130988 C128.745585,109.130988 125.163863,105.549266 125.163863,101.130988 C125.163863,100.531651 125.231214,99.9342122 125.364646,99.3499172 L129.018493,83.3499172 C129.84938,79.7115032 133.085628,77.1309883 136.81771,77.1309883 Z" id="Rectangle-Copy-6" fill="#D8D8D8" transform="translate(142.130988, 93.130988) scale(1, -1) rotate(90.000000) translate(-142.130988, -93.130988) "></path>
                <path d="M37.8177095,77.1309883 L48.4442671,77.1309883 C52.1763484,77.1309883 55.4125963,79.7115032 56.2434841,83.3499172 L59.8973303,99.3499172 C60.8809887,103.657306 58.1865731,107.946547 53.8791845,108.930205 C53.2948894,109.063638 52.6974504,109.130988 52.0981133,109.130988 L34.1638634,109.130988 C29.7455854,109.130988 26.1638634,105.549266 26.1638634,101.130988 C26.1638634,100.531651 26.2312137,99.9342122 26.3646464,99.3499172 L30.0184926,83.3499172 C30.8493804,79.7115032 34.0856283,77.1309883 37.8177095,77.1309883 Z" id="Rectangle-Copy-7" fill="#D8D8D8" transform="translate(43.130988, 93.130988) scale(-1, -1) rotate(90.000000) translate(-43.130988, -93.130988) "></path>
                <circle id="Oval" fill="#D8D8D8" cx="92.6309883" cy="92.6309883" r="49.5"></circle>
                <circle id="Oval-Copy" fill="#B5B5B5" cx="92.6309883" cy="92.6309883" r="16.5"></circle>
            </g>
        </g>
    </g>
</svg>