<svg width="204" height="132" viewBox="0 0 204 132" fill="none" xmlns="http://www.w3.org/2000/svg">
<mask id="path-1-inside-1_5_152" fill="white">
<path fill-rule="evenodd" clip-rule="evenodd" d="M75.6353 71C70.6965 76.7512 64.2635 81.182 56.9385 83.6906L42.2061 122.996C40.1895 128.376 34.88 131.794 29.1475 131.403L17.1211 130.582C9.89928 130.089 4.47122 123.792 5.04808 116.576L8.84178 69.1229C3.29562 61.8817 0 52.8257 0 43C0 19.2518 19.2518 0 43 0C52.9188 0 62.0532 3.35835 69.3282 9H97H107H134.672C141.947 3.35835 151.081 0 161 0C184.748 0 204 19.2518 204 43C204 52.8257 200.704 61.8817 195.158 69.1229L198.952 116.576C199.529 123.792 194.101 130.089 186.879 130.582L174.852 131.403C169.12 131.794 163.81 128.376 161.794 122.996L147.062 83.6906C139.736 81.182 133.304 76.7512 128.365 71H107H97H75.6353Z"/>
</mask>
<path d="M56.9385 83.6906L55.9665 80.8524L54.6265 81.3113L54.1293 82.6377L56.9385 83.6906ZM75.6353 71V68H74.2572L73.3594 69.0455L75.6353 71ZM42.2061 122.996L39.397 121.943L39.397 121.943L42.2061 122.996ZM29.1475 131.403L29.3519 128.41L29.3519 128.41L29.1475 131.403ZM17.1211 130.582L17.3255 127.589L17.3255 127.589L17.1211 130.582ZM5.04808 116.576L2.05763 116.337L2.05763 116.337L5.04808 116.576ZM8.84178 69.1229L11.8322 69.362L11.9241 68.2135L11.2235 67.2987L8.84178 69.1229ZM69.3282 9L67.4898 11.3707L68.3013 12H69.3282V9ZM134.672 9V12H135.699L136.51 11.3707L134.672 9ZM195.158 69.1229L192.777 67.2987L192.076 68.2135L192.168 69.362L195.158 69.1229ZM198.952 116.576L201.942 116.337L201.942 116.337L198.952 116.576ZM186.879 130.582L186.675 127.589L186.675 127.589L186.879 130.582ZM174.852 131.403L174.648 128.41L174.648 128.41L174.852 131.403ZM161.794 122.996L164.603 121.943L164.603 121.943L161.794 122.996ZM147.062 83.6906L149.871 82.6377L149.374 81.3113L148.033 80.8524L147.062 83.6906ZM128.365 71L130.641 69.0455L129.743 68H128.365V71ZM57.9105 86.5288C65.7508 83.8437 72.631 79.1033 77.9113 72.9545L73.3594 69.0455C68.762 74.3991 62.7762 78.5203 55.9665 80.8524L57.9105 86.5288ZM45.0153 124.049L59.7476 84.7435L54.1293 82.6377L39.397 121.943L45.0153 124.049ZM28.9432 134.396C35.9985 134.878 42.5333 130.671 45.0153 124.049L39.397 121.943C37.8457 126.082 33.7615 128.711 29.3519 128.41L28.9432 134.396ZM16.9168 133.575L28.9432 134.396L29.3519 128.41L17.3255 127.589L16.9168 133.575ZM2.05763 116.337C1.34764 125.218 8.02833 132.968 16.9168 133.575L17.3255 127.589C11.7702 127.209 7.5948 122.366 8.03854 116.815L2.05763 116.337ZM5.85132 68.8838L2.05763 116.337L8.03854 116.815L11.8322 69.362L5.85132 68.8838ZM-3 43C-3 53.5079 0.526973 63.2007 6.4601 70.9471L11.2235 67.2987C6.06426 60.5628 3 52.1435 3 43H-3ZM43 -3C17.5949 -3 -3 17.5949 -3 43H3C3 20.9086 20.9086 3 43 3V-3ZM71.1666 6.62931C63.3842 0.594163 53.6076 -3 43 -3V3C52.23 3 60.7222 6.12254 67.4898 11.3707L71.1666 6.62931ZM97 6H69.3282V12H97V6ZM107 6H97V12H107V6ZM134.672 6H107V12H134.672V6ZM161 -3C150.392 -3 140.616 0.594162 132.833 6.62931L136.51 11.3707C143.278 6.12254 151.77 3 161 3V-3ZM207 43C207 17.5949 186.405 -3 161 -3V3C183.091 3 201 20.9086 201 43H207ZM197.54 70.9471C203.473 63.2007 207 53.5079 207 43H201C201 52.1435 197.936 60.5628 192.777 67.2987L197.54 70.9471ZM201.942 116.337L198.149 68.8838L192.168 69.362L195.961 116.815L201.942 116.337ZM187.083 133.575C195.972 132.968 202.652 125.218 201.942 116.337L195.961 116.815C196.405 122.366 192.23 127.209 186.675 127.589L187.083 133.575ZM175.057 134.396L187.083 133.575L186.675 127.589L174.648 128.41L175.057 134.396ZM158.985 124.049C161.467 130.671 168.001 134.878 175.057 134.396L174.648 128.41C170.239 128.711 166.154 126.082 164.603 121.943L158.985 124.049ZM144.252 84.7435L158.985 124.049L164.603 121.943L149.871 82.6377L144.252 84.7435ZM126.089 72.9545C131.369 79.1033 138.249 83.8437 146.09 86.5288L148.033 80.8524C141.224 78.5203 135.238 74.3991 130.641 69.0455L126.089 72.9545ZM107 74H128.365V68H107V74ZM97 74H107V68H97V74ZM75.6353 74H97V68H75.6353V74Z" fill="black" mask="url(#path-1-inside-1_5_152)"/>
<rect x="38" y="24" width="9" height="14" rx="3" stroke="black" stroke-width="2"/>
<rect x="38" y="47" width="9" height="14" rx="3" stroke="black" stroke-width="2"/>
<rect x="48" y="47" width="9" height="14" rx="3" transform="rotate(-90 48 47)" stroke="black" stroke-width="2"/>
<rect x="23" y="47" width="9" height="14" rx="3" transform="rotate(-90 23 47)" stroke="black" stroke-width="2"/>
<circle cx="160.5" cy="30.5" r="5.5" stroke="black" stroke-width="2"/>
<circle cx="160.5" cy="54.5" r="5.5" stroke="black" stroke-width="2"/>
<circle cx="173.5" cy="42.5" r="5.5" stroke="black" stroke-width="2"/>
<circle cx="147.5" cy="42.5" r="5.5" stroke="black" stroke-width="2"/>
<circle cx="42.5" cy="42.5" r="34.5" stroke="black" stroke-width="2"/>
<circle cx="160.5" cy="42.5" r="34.5" stroke="black" stroke-width="2"/>
</svg>
