<svg width="292" height="216" viewBox="0 0 292 216" fill="none" xmlns="http://www.w3.org/2000/svg">
<rect x="123.5" y="107.5" width="29" height="29" rx="5.5" stroke="black" stroke-width="3"/>
<path d="M137.5 108V48M129 108V93.5L102 66.5V27M122 116L105.5 99.5H31.5M122 127.5H109.5L105.5 123.5H67.5M129 136L118.5 146.5H73L66 157H12.5M137.5 136V154.5L152.5 169.5V203.5M150.5 136L181.5 167H199L216 184M153.5 127.5H224.5L236.5 116H279M153.5 116L167.5 102H194L222 74H260M148 108V86.5L158.5 76V13M116 95L97 76H82M124 155.5L106.5 173V196.5M171.5 137L181.5 146.5H231.5M160.5 93.5L198 56" stroke="black" stroke-width="2"/>
<circle cx="102" cy="21" r="6" stroke="black" stroke-width="2"/>
<circle cx="26" cy="100" r="6" stroke="black" stroke-width="2"/>
<circle cx="62" cy="124" r="6" stroke="black" stroke-width="2"/>
<circle cx="7" cy="157" r="6" stroke="black" stroke-width="2"/>
<circle cx="152" cy="209" r="6" stroke="black" stroke-width="2"/>
<circle cx="285" cy="116" r="6" stroke="black" stroke-width="2"/>
<circle cx="267" cy="74" r="6" stroke="black" stroke-width="2"/>
<circle cx="158" cy="7" r="6" stroke="black" stroke-width="2"/>
<circle cx="137" cy="42" r="6" stroke="black" stroke-width="2"/>
<circle cx="220" cy="188" r="6" stroke="black" stroke-width="2"/>
<circle cx="200" cy="54" r="4" stroke="black" stroke-width="2"/>
<circle cx="79" cy="76" r="4" stroke="black" stroke-width="2"/>
<circle cx="106" cy="200" r="4" stroke="black" stroke-width="2"/>
<circle cx="235" cy="147" r="4" stroke="black" stroke-width="2"/>
<circle cx="138" cy="122" r="35.5" stroke="black" stroke-width="3"/>
</svg>
