<?xml version="1.0" encoding="UTF-8"?>
<svg width="52px" height="45px" viewBox="0 0 52 45" version="1.1" xmlns="http://www.w3.org/2000/svg" xmlns:xlink="http://www.w3.org/1999/xlink">
    <title>direc_icon</title>
    <g id="Page-1" stroke="none" stroke-width="1" fill="none" fill-rule="evenodd">
        <g id="Mobile-White" transform="translate(-37.000000, -1224.000000)" stroke="#979797">
            <g id="Skill-Directory" transform="translate(5.000000, 1164.000000)">
                <g id="Rectangle" transform="translate(32.000000, 60.000000)">
                    <path d="M22.4350013,0.5 C23.1257251,0.5 23.7856695,0.785774446 24.258257,1.28952094 L24.258257,1.28952094 L26.1838708,3.34209581 C26.4259466,3.6001324 26.5405152,3.9318613 26.5300556,4.25960003 C26.5195961,4.58733875 26.3841084,4.91108729 26.1260719,5.15316314 C25.888559,5.37598472 25.575109,5.5 25.2494377,5.5 L25.2494377,5.5 L9,5.5 C8.30964406,5.5 7.68464406,5.22017797 7.23223305,4.76776695 C6.77982203,4.31535594 6.5,3.69035594 6.5,3 C6.5,2.30964406 6.77982203,1.68464406 7.23223305,1.23223305 C7.68464406,0.779822031 8.30964406,0.5 9,0.5 L9,0.5 Z" fill="#E5E5E5"></path>
                    <rect fill="#FFFFFF" x="0.5" y="4.5" width="51" height="40" rx="6"></rect>
                </g>
            </g>
        </g>
    </g>
</svg>