<?xml version="1.0" encoding="UTF-8"?>
<svg width="52px" height="45px" viewBox="0 0 52 45" version="1.1" xmlns="http://www.w3.org/2000/svg" xmlns:xlink="http://www.w3.org/1999/xlink">
    <title>direc_open</title>
    <g id="Page-1" stroke="none" stroke-width="1" fill="none" fill-rule="evenodd">
        <g id="Artboard" transform="translate(-183.000000, -896.000000)">
            <g id="Group" transform="translate(183.000000, 896.000000)">
                <path d="M24.6156813,0.5 C25.3476617,0.5 26.0428704,0.820796838 26.5178558,1.37773863 L26.5178558,1.37773863 L28.1781021,3.32445227 C28.4145237,3.60166714 28.5161996,3.94846684 28.4894665,4.28506821 C28.4627334,4.62166957 28.3075912,4.9480726 28.0303763,5.1844941 C27.7915952,5.38813758 27.4880449,5.5 27.1742183,5.5 L27.1742183,5.5 L10,5.5 C9.30964406,5.5 8.68464406,5.22017797 8.23223305,4.76776695 C7.77982203,4.31535594 7.5,3.69035594 7.5,3 C7.5,2.30964406 7.77982203,1.68464406 8.23223305,1.23223305 C8.68464406,0.779822031 9.30964406,0.5 10,0.5 L10,0.5 Z" id="Rectangle" stroke="#979797" fill="#D8D8D8"></path>
                <rect id="Rectangle" stroke="#979797" fill="#D8D8D8" x="0.5" y="4.5" width="44" height="40" rx="7"></rect>
                <path d="M48.3405883,10.5 C49.0309442,10.5 49.6559442,10.779822 50.1083552,11.232233 C50.5607663,11.6846441 50.8405883,12.3096441 50.8405883,13 L50.8405883,13 L46.1174774,36.8631033 C45.6734244,39.0833682 44.4766627,40.9925924 42.8248556,42.3467503 C41.1730484,43.7009083 39.0661958,44.5 36.801961,44.5 L36.801961,44.5 L5.6454677,44.5 C4.67896939,44.5 3.80396939,44.1082492 3.17059397,43.4748737 C2.53721855,42.8414983 2.1454677,41.9664983 2.1454677,41 C2.1454677,40.6047999 2.21239992,40.212454 2.34342499,39.8396061 L2.34342499,39.8396061 L11.5967756,13.508065 C11.9134243,12.6070025 12.4972545,11.8549862 13.2406929,11.3282356 C13.9841314,10.801485 14.8871779,10.5 15.8422591,10.5 L15.8422591,10.5 Z" id="Rectangle" stroke="#979797" fill="#FFFFFF"></path>
                <polygon id="Triangle" fill="#A7A7A7" transform="translate(20.500000, 27.500000) rotate(-90.000000) translate(-20.500000, -27.500000) " points="20.5 21.5 28.5 33.5 12.5 33.5"></polygon>
                <circle id="Oval" fill="#979797" cx="31.5" cy="27.5" r="2.5"></circle>
                <circle id="Oval-Copy" fill="#B0B0B0" cx="38.5" cy="27.5" r="2.5"></circle>
            </g>
        </g>
    </g>
</svg>