<?xml version="1.0" encoding="UTF-8"?>
<svg width="390px" height="122px" viewBox="0 0 390 122" version="1.1" xmlns="http://www.w3.org/2000/svg" xmlns:xlink="http://www.w3.org/1999/xlink">
    <title>exploded-builder</title>
    <g id="Page-1" stroke="none" stroke-width="1" fill="none" fill-rule="evenodd">
        <g id="Mobile" transform="translate(-110.000000, -1519.000000)">
            <g id="exploded-builder" transform="translate(110.505749, 1519.749477)">
                <g id="spark-copy" transform="translate(153.806185, 107.250523) rotate(180.000000) translate(-153.806185, -107.250523) translate(131.118118, 93.250523)" fill="#6B6B6B">
                    <polygon id="Path-7" points="0 17 6.5 23.5849898 13 28 8.02833054 21.9488663"></polygon>
                    <polygon id="Path-7-Copy" transform="translate(37.815957, 8.422987) rotate(45.000000) translate(-37.815957, -8.422987) " points="32.7789201 2.76831951 37.6512067 9.6892104 42.8529944 14.0776535 38.3666939 8.97372319"></polygon>
                    <polygon id="Path-8" points="15 0 19.3382212 13.5207396 22.348966 9.4137931 23.9677889 20.5158421 26.6300524 16.8328836 28 28 28 14 24.5058601 18.8510353 23.9677889 6.85447276 19.9457264 11.3755995"></polygon>
                </g>
                <path d="M113.557983,26.250523 C114.938695,26.250523 116.188695,26.8101671 117.093517,27.7149891 C117.998339,28.6198111 118.557983,29.8698111 118.557983,31.250523 C118.557983,31.6549239 118.508922,32.0578313 118.411875,32.4504149 L118.411875,32.4504149 L112.65204,55.750523 L119.944501,85.250523 L87.2783882,85.250523 C84.2408221,85.250523 81.4908221,84.0193061 79.5002136,82.0286976 C77.5096052,80.0380891 76.2783882,77.2880891 76.2783882,74.250523 L76.2783882,74.250523 L76.2783882,62.6158188 L51.003227,34.5997908 C50.0783522,33.5746216 49.6565672,32.2716255 49.7222931,30.993703 C49.7880191,29.7157805 50.3412561,28.4629316 51.3664253,27.5380568 C52.2850911,26.7092661 53.4784216,26.250523 54.7156931,26.250523 L54.7156931,26.250523 Z" id="Rectangle-Copy-9" stroke="#777777" stroke-width="2" fill="#D8D8D8" transform="translate(81.221804, 55.750523) rotate(30.000000) translate(-81.221804, -55.750523) "></path>
                <polygon id="Path-9" fill="#777777" points="0 43.2349391 0 97.7839108 34.9062269 110.617764 80.9987552 93.7734476 72.1345936 67.9185619 40.4993776 67.9185619 52.4436639 43.2349391"></polygon>
                <polygon id="Path-10" fill="#777777" points="198.85092 32.8350684 163.051419 76.9520173 194.494251 110.162508 198.85092 93.6177639 209.494251 71.4987881 227.543152 97.250523 265.494251 86.8706861 272.575614 66.750523 245.494251 40.2277384 202.494251 47.8576262"></polygon>
                <g id="cogfg-copy-3" transform="translate(323.113786, 59.750523) rotate(90.000000) translate(-323.113786, -59.750523) translate(263.363263, -5.749477)">
                    <g id="Group" transform="translate(59.750523, 65.853553) rotate(45.000000) translate(-59.750523, -65.853553) translate(17.250523, 23.853553)" fill="#D8D8D8">
                        <path d="M10.6867212,3 L21.3132788,3 C25.0453601,3 28.281608,5.58051486 29.1124958,9.21892882 L32.7663419,25.2189288 C33.7500004,29.5263174 31.0555847,33.8155585 26.7481961,34.799217 C26.1639011,34.9326497 25.5664621,35 24.9671249,35 L7.03287506,35 C2.61459706,35 -0.967124941,31.418278 -0.967124941,27 C-0.967124941,26.4006629 -0.899774675,25.8032238 -0.766341917,25.2189288 L2.88750424,9.21892882 C3.71839204,5.58051486 6.95463993,3 10.6867212,3 Z" id="Rectangle-Copy-3" transform="translate(16.000000, 19.000000) scale(-1, 1) rotate(90.000000) translate(-16.000000, -19.000000) "></path>
                        <path d="M60.6867212,52 L71.3132788,52 C75.0453601,52 78.281608,54.5805149 79.1124958,58.2189288 L82.7663419,74.2189288 C83.7500004,78.5263174 81.0555847,82.8155585 76.7481961,83.799217 C76.1639011,83.9326497 75.5664621,84 74.9671249,84 L57.0328751,84 C52.6145971,84 49.0328751,80.418278 49.0328751,76 C49.0328751,75.4006629 49.1002253,74.8032238 49.2336581,74.2189288 L52.8875042,58.2189288 C53.718392,54.5805149 56.9546399,52 60.6867212,52 Z" id="Rectangle-Copy" transform="translate(66.000000, 68.000000) scale(1, -1) translate(-66.000000, -68.000000) "></path>
                    </g>
                    <path d="M87.8177095,0 L98.4442671,0 C102.176348,-6.85572209e-16 105.412596,2.58051486 106.243484,6.21892882 L109.89733,22.2189288 C110.880989,26.5263174 108.186573,30.8155585 103.879184,31.799217 C103.294889,31.9326497 102.69745,32 102.098113,32 L84.1638634,32 C79.7455854,32 76.1638634,28.418278 76.1638634,24 C76.1638634,23.4006629 76.2312137,22.8032238 76.3646464,22.2189288 L80.0184926,6.21892882 C80.8493804,2.58051486 84.0856283,2.46192905e-15 87.8177095,0 Z" id="Rectangle-Copy-4" fill="#D8D8D8"></path>
                    <path d="M87.8177095,99 L98.4442671,99 C102.176348,99 105.412596,101.580515 106.243484,105.218929 L109.89733,121.218929 C110.880989,125.526317 108.186573,129.815559 103.879184,130.799217 C103.294889,130.93265 102.69745,131 102.098113,131 L84.1638634,131 C79.7455854,131 76.1638634,127.418278 76.1638634,123 C76.1638634,122.400663 76.2312137,121.803224 76.3646464,121.218929 L80.0184926,105.218929 C80.8493804,101.580515 84.0856283,99 87.8177095,99 Z" id="Rectangle-Copy-5" fill="#D8D8D8" transform="translate(93.130988, 115.000000) scale(1, -1) translate(-93.130988, -115.000000) "></path>
                    <path d="M37.8177095,50 L48.4442671,50 C52.1763484,50 55.4125963,52.5805149 56.2434841,56.2189288 L59.8973303,72.2189288 C60.8809887,76.5263174 58.1865731,80.8155585 53.8791845,81.799217 C53.2948894,81.9326497 52.6974504,82 52.0981133,82 L34.1638634,82 C29.7455854,82 26.1638634,78.418278 26.1638634,74 C26.1638634,73.4006629 26.2312137,72.8032238 26.3646464,72.2189288 L30.0184926,56.2189288 C30.8493804,52.5805149 34.0856283,50 37.8177095,50 Z" id="Rectangle-Copy-7" fill="#D8D8D8" transform="translate(43.130988, 66.000000) scale(-1, -1) rotate(90.000000) translate(-43.130988, -66.000000) "></path>
                    <path d="M92.6309883,115 C119.969083,115 96.2417473,74.3380951 96.2417473,47 C96.2417473,19.6619049 119.969083,16 92.6309883,16 C65.2928932,16 43.1309883,38.1619049 43.1309883,65.5 C43.1309883,92.8380951 65.2928932,115 92.6309883,115 Z" id="Oval" fill="#D8D8D8"></path>
                    <path d="M92.6309883,82 C101.743687,82 102.3367,88.4041872 102.3367,79.2914889 C102.3367,70.1787905 101.743687,49 92.6309883,49 C83.51829,49 76.1309883,56.3873016 76.1309883,65.5 C76.1309883,74.6126984 83.51829,82 92.6309883,82 Z" id="Oval-Copy" fill="#B5B5B5"></path>
                </g>
                <g id="robot-head" transform="translate(105.494251, 10.560881)" stroke="#979797">
                    <path d="M72.4606144,48.0928946 L72.4606144,90.9469472 L38.5905795,82.1773532 L28.7908505,90.5113214 L28.7908505,48.0928946 L72.4606144,48.0928946 Z" id="Rectangle" fill="#C4C4C4"></path>
                    <path d="M33.7162072,0.500574147 C41.7342724,0.513412201 47.3480333,0.740212488 50.5571006,1.18490975 C57.1806903,2.10277525 63.6713925,5.37303131 70.0377496,10.9750456 L70.0377496,10.9750456 L82.8632794,6.7642007 C86.1428266,5.68746819 89.5483315,6.04196902 92.4031327,7.48553979 C95.2579338,8.92911056 97.5620313,11.4617513 98.6387639,14.7412985 C99.0519435,15.9997746 99.2624727,17.3159242 99.2624727,18.6404918 L99.2624727,18.6404918 L99.2624727,53.7933592 L0.5,53.7933592 L0.5,13.3032035 C0.500000394,9.91444652 1.85029393,6.83435575 4.04749269,4.57952331 C6.24469139,2.32469093 9.28879528,0.895116843 12.6764165,0.807393169 C20.1811723,0.613054806 26.6597086,0.510847907 32.1111824,0.500819173 L32.1111824,0.500819173 Z" id="Rectangle-Copy-8" fill="#C4C4C4"></path>
                    <path d="M79.6604189,25.6934416 C81.7995488,25.6962655 83.5176996,25.7127876 84.6439278,26.3719602 C85.4306145,26.8324019 85.8615435,27.6423396 85.8615435,28.9804929 C85.8615435,30.692704 85.1675329,32.2428201 84.0454695,33.3648835 C82.9234061,34.4869469 81.37329,35.1809575 79.661079,35.1809575 C77.9488679,35.1809575 76.3987518,34.4869469 75.2766884,33.3648835 C74.154625,32.2428201 73.4606144,30.692704 73.4606144,28.9804929 C73.4606144,28.2993873 73.568594,27.7547643 73.7813405,27.322445 C73.994511,26.8892639 74.3139713,26.5774712 74.7148883,26.3508761 C75.8853788,25.6893238 77.6728217,25.693442 79.6604189,25.6934416 Z" id="Oval" fill="#FFFFFF"></path>
                    <circle id="Oval-Copy-2" fill="#FFFFFF" cx="21.5903859" cy="28.9804929" r="6.20046458"></circle>
                    <path d="M98.9546486,53.6842172 L98.9546486,63.1842172 C98.9546486,66.9121393 97.4436096,70.2871393 95.0005901,72.7301587 C92.5575706,75.1731782 89.1825706,76.6842172 85.4546486,76.6842172 L85.4546486,76.6842172 L14.4546486,76.6842172 C10.7267265,76.6842172 7.35172652,75.1731782 4.90870703,72.7301587 C2.46568755,70.2871393 0.95464858,66.9121393 0.95464858,63.1842172 L0.95464858,63.1842172 L0.95464858,53.6842172 L98.9546486,53.6842172 Z" id="Rectangle" fill="#D8D8D8"></path>
                </g>
                <rect id="Rectangle" stroke="#979797" fill="#D8D8D8" transform="translate(275.023855, 22.303917) rotate(-10.000000) translate(-275.023855, -22.303917) " x="232.523855" y="8.80391665" width="85" height="27" rx="9"></rect>
                <text id="&lt;html&gt;" fill-rule="nonzero" transform="translate(274.688844, 22.189754) rotate(-10.000000) translate(-274.688844, -22.189754) " font-family="SourceCodePro-Light, Source Code Pro" font-size="14" font-weight="300" fill="#585858">
                    <tspan x="249.488844" y="27.189754">&lt;html&gt;</tspan>
                </text>
            </g>
        </g>
    </g>
</svg>