<svg width="400" height="551" viewBox="0 0 400 551" fill="none" xmlns="http://www.w3.org/2000/svg">
<rect x="6.5" y="6.5" width="393" height="540" stroke="black"/>
<rect x="34.5" y="33.5" width="337" height="486" stroke="black"/>
<rect x="41.5" y="39.5" width="323" height="474" stroke="black"/>
<path d="M17.3033 22.5957L18.5 21L18.2557 21.4887C15.4891 27.0219 17.0049 33.7382 21.8799 37.5468L29.5 43.5L19.7047 36.8815C14.9682 33.6812 13.8735 27.1687 17.3033 22.5957Z" fill="black"/>
<path d="M14.3033 159.596L15.5 158L15.2557 158.489C12.4891 164.022 14.0049 170.738 18.8799 174.547L26.5 180.5L16.7047 173.882C11.9682 170.681 10.8735 164.169 14.3033 159.596Z" fill="black"/>
<path d="M11.7536 106.032L9.84243 105.461L10.3295 105.709C15.8447 108.511 18.6213 114.812 16.9679 120.773L14.3835 130.091L18.3207 118.944C20.2246 113.554 17.2308 107.668 11.7536 106.032Z" fill="black"/>
<path d="M27.2497 59.2366L18.3461 40.095L25.5994 59.4591C26.5581 62.0186 26.2939 64.876 24.882 67.2163C22.5089 71.1503 17.5411 72.6463 13.3902 70.677L10.3019 69.2119L12.6341 70.9906C17.6064 74.7829 24.8167 72.9227 27.3338 67.1982C28.4518 64.6557 28.4211 61.7549 27.2497 59.2366Z" fill="black"/>
<path d="M29.2497 141.237L20.3461 122.095L27.5994 141.459C28.5581 144.019 28.2939 146.876 26.882 149.216C24.5089 153.15 19.5411 154.646 15.3902 152.677L12.3019 151.212L14.6341 152.991C19.6064 156.783 26.8167 154.923 29.3338 149.198C30.4518 146.656 30.4211 143.755 29.2497 141.237Z" fill="black"/>
<path d="M12.4103 78.6191L13.9627 74.5234L13.0457 78.7724C11.9633 83.7878 12.205 88.9985 13.7471 93.8921C14.9179 97.6073 16.8115 101.054 19.3191 104.035L32.0365 119.153L18.6408 106.282C14.3755 102.184 11.6532 96.7409 10.9323 90.8699C10.4236 86.7269 10.9309 82.5223 12.4103 78.6191Z" fill="black"/>
<path d="M25.8446 169.142L23.4425 165.479L25.2574 169.429C27.3997 174.091 28.2915 179.231 27.8451 184.342C27.5062 188.223 26.4036 191.998 24.6007 195.451L15.4568 212.963L25.7492 197.498C29.0263 192.574 30.5061 186.67 29.9391 180.782C29.539 176.627 28.1338 172.632 25.8446 169.142Z" fill="black"/>
<path d="M17.3033 214.596L18.5 213L18.2557 213.489C15.4891 219.022 17.0049 225.738 21.8799 229.547L29.5 235.5L19.7047 228.882C14.9682 225.681 13.8735 219.169 17.3033 214.596Z" fill="black"/>
<path d="M14.3033 351.596L15.5 350L15.2557 350.489C12.4891 356.022 14.0049 362.738 18.8799 366.547L26.5 372.5L16.7047 365.882C11.9682 362.681 10.8735 356.169 14.3033 351.596Z" fill="black"/>
<path d="M11.7536 298.032L9.84243 297.461L10.3295 297.709C15.8447 300.511 18.6213 306.812 16.9679 312.773L14.3835 322.091L18.3207 310.944C20.2246 305.554 17.2308 299.668 11.7536 298.032Z" fill="black"/>
<path d="M27.2497 251.237L18.3461 232.095L25.5994 251.459C26.5581 254.019 26.2939 256.876 24.882 259.216C22.5089 263.15 17.5411 264.646 13.3902 262.677L10.3019 261.212L12.6341 262.991C17.6064 266.783 24.8167 264.923 27.3338 259.198C28.4518 256.656 28.4211 253.755 27.2497 251.237Z" fill="black"/>
<path d="M29.2497 333.237L20.3461 314.095L27.5994 333.459C28.5581 336.019 28.2939 338.876 26.882 341.216C24.5089 345.15 19.5411 346.646 15.3902 344.677L12.3019 343.212L14.6341 344.991C19.6064 348.783 26.8167 346.923 29.3338 341.198C30.4518 338.656 30.4211 335.755 29.2497 333.237Z" fill="black"/>
<path d="M12.4103 270.619L13.9627 266.523L13.0457 270.772C11.9633 275.788 12.205 280.998 13.7471 285.892C14.9179 289.607 16.8115 293.054 19.3191 296.035L32.0365 311.153L18.6408 298.282C14.3755 294.184 11.6532 288.741 10.9323 282.87C10.4236 278.727 10.9309 274.522 12.4103 270.619Z" fill="black"/>
<path d="M25.8446 361.142L23.4425 357.479L25.2574 361.429C27.3997 366.091 28.2915 371.231 27.8451 376.342C27.5062 380.223 26.4036 383.998 24.6007 387.451L15.4568 404.963L25.7492 389.498C29.0263 384.574 30.5061 378.67 29.9391 372.782C29.539 368.627 28.1338 364.632 25.8446 361.142Z" fill="black"/>
<path d="M16.3033 410.596L17.5 409L17.2557 409.489C14.4891 415.022 16.0049 421.738 20.8799 425.547L28.5 431.5L18.7047 424.882C13.9682 421.681 12.8735 415.169 16.3033 410.596Z" fill="black"/>
<path d="M10.7536 494.032L8.84243 493.461L9.3295 493.709C14.8447 496.511 17.6213 502.812 15.9679 508.773L13.3835 518.091L17.3207 506.944C19.2246 501.554 16.2308 495.668 10.7536 494.032Z" fill="black"/>
<path d="M26.2497 447.237L17.3461 428.095L24.5994 447.459C25.5581 450.019 25.2939 452.876 23.882 455.216C21.5089 459.15 16.5411 460.646 12.3902 458.677L9.30193 457.212L11.6341 458.991C16.6064 462.783 23.8167 460.923 26.3338 455.198C27.4518 452.656 27.4211 449.755 26.2497 447.237Z" fill="black"/>
<path d="M28.2497 529.237L19.3461 510.095L26.5994 529.459C27.5581 532.019 27.2939 534.876 25.882 537.216C23.5089 541.15 18.5411 542.646 14.3902 540.677L11.3019 539.212L13.6341 540.991C18.6064 544.783 25.8167 542.923 28.3338 537.198C29.4518 534.656 29.4211 531.755 28.2497 529.237Z" fill="black"/>
<path d="M11.4103 466.619L12.9627 462.523L12.0457 466.772C10.9633 471.788 11.205 476.998 12.7471 481.892C13.9179 485.607 15.8115 489.054 18.3191 492.035L31.0365 507.153L17.6408 494.282C13.3755 490.184 10.6532 484.741 9.9323 478.87C9.4236 474.727 9.93087 470.522 11.4103 466.619Z" fill="black"/>
<path d="M382.303 19.5957L383.5 18L383.256 18.4887C380.489 24.0219 382.005 30.7382 386.88 34.5468L394.5 40.5L384.705 33.8815C379.968 30.6812 378.873 24.1687 382.303 19.5957Z" fill="black"/>
<path d="M379.303 156.596L380.5 155L380.256 155.489C377.489 161.022 379.005 167.738 383.88 171.547L391.5 177.5L381.705 170.882C376.968 167.681 375.873 161.169 379.303 156.596Z" fill="black"/>
<path d="M376.754 103.032L374.842 102.461L375.33 102.709C380.845 105.511 383.621 111.812 381.968 117.773L379.384 127.091L383.321 115.944C385.225 110.554 382.231 104.668 376.754 103.032Z" fill="black"/>
<path d="M392.25 56.2366L383.346 37.095L390.599 56.4591C391.558 59.0186 391.294 61.876 389.882 64.2163C387.509 68.1503 382.541 69.6463 378.39 67.677L375.302 66.2119L377.634 67.9906C382.606 71.7829 389.817 69.9227 392.334 64.1982C393.452 61.6557 393.421 58.7549 392.25 56.2366Z" fill="black"/>
<path d="M394.25 138.237L385.346 119.095L392.599 138.459C393.558 141.019 393.294 143.876 391.882 146.216C389.509 150.15 384.541 151.646 380.39 149.677L377.302 148.212L379.634 149.991C384.606 153.783 391.817 151.923 394.334 146.198C395.452 143.656 395.421 140.755 394.25 138.237Z" fill="black"/>
<path d="M377.41 75.6191L378.963 71.5234L378.046 75.7724C376.963 80.7878 377.205 85.9985 378.747 90.8921C379.918 94.6073 381.812 98.0544 384.319 101.035L397.036 116.153L383.641 103.282C379.376 99.184 376.653 93.7409 375.932 87.8699C375.424 83.7269 375.931 79.5223 377.41 75.6191Z" fill="black"/>
<path d="M390.845 166.142L388.442 162.479L390.257 166.429C392.4 171.091 393.292 176.231 392.845 181.342C392.506 185.223 391.404 188.998 389.601 192.451L380.457 209.963L390.749 194.498C394.026 189.574 395.506 183.67 394.939 177.782C394.539 173.627 393.134 169.632 390.845 166.142Z" fill="black"/>
<path d="M382.303 211.596L383.5 210L383.256 210.489C380.489 216.022 382.005 222.738 386.88 226.547L394.5 232.5L384.705 225.882C379.968 222.681 378.873 216.169 382.303 211.596Z" fill="black"/>
<path d="M379.303 348.596L380.5 347L380.256 347.489C377.489 353.022 379.005 359.738 383.88 363.547L391.5 369.5L381.705 362.882C376.968 359.681 375.873 353.169 379.303 348.596Z" fill="black"/>
<path d="M376.754 295.032L374.842 294.461L375.33 294.709C380.845 297.511 383.621 303.812 381.968 309.773L379.384 319.091L383.321 307.944C385.225 302.554 382.231 296.668 376.754 295.032Z" fill="black"/>
<path d="M392.25 248.237L383.346 229.095L390.599 248.459C391.558 251.019 391.294 253.876 389.882 256.216C387.509 260.15 382.541 261.646 378.39 259.677L375.302 258.212L377.634 259.991C382.606 263.783 389.817 261.923 392.334 256.198C393.452 253.656 393.421 250.755 392.25 248.237Z" fill="black"/>
<path d="M394.25 330.237L385.346 311.095L392.599 330.459C393.558 333.019 393.294 335.876 391.882 338.216C389.509 342.15 384.541 343.646 380.39 341.677L377.302 340.212L379.634 341.991C384.606 345.783 391.817 343.923 394.334 338.198C395.452 335.656 395.421 332.755 394.25 330.237Z" fill="black"/>
<path d="M377.41 267.619L378.963 263.523L378.046 267.772C376.963 272.788 377.205 277.998 378.747 282.892C379.918 286.607 381.812 290.054 384.319 293.035L397.036 308.153L383.641 295.282C379.376 291.184 376.653 285.741 375.932 279.87C375.424 275.727 375.931 271.522 377.41 267.619Z" fill="black"/>
<path d="M390.845 358.142L388.442 354.479L390.257 358.429C392.4 363.091 393.292 368.231 392.845 373.342C392.506 377.223 391.404 380.998 389.601 384.451L380.457 401.963L390.749 386.498C394.026 381.574 395.506 375.67 394.939 369.782C394.539 365.627 393.134 361.632 390.845 358.142Z" fill="black"/>
<path d="M381.303 407.596L382.5 406L382.256 406.489C379.489 412.022 381.005 418.738 385.88 422.547L393.5 428.5L383.705 421.882C378.968 418.681 377.873 412.169 381.303 407.596Z" fill="black"/>
<path d="M375.754 491.032L373.842 490.461L374.33 490.709C379.845 493.511 382.621 499.812 380.968 505.773L378.384 515.091L382.321 503.944C384.225 498.554 381.231 492.668 375.754 491.032Z" fill="black"/>
<path d="M391.25 444.237L382.346 425.095L389.599 444.459C390.558 447.019 390.294 449.876 388.882 452.216C386.509 456.15 381.541 457.646 377.39 455.677L374.302 454.212L376.634 455.991C381.606 459.783 388.817 457.923 391.334 452.198C392.452 449.656 392.421 446.755 391.25 444.237Z" fill="black"/>
<path d="M393.25 526.237L384.346 507.095L391.599 526.459C392.558 529.019 392.294 531.876 390.882 534.216C388.509 538.15 383.541 539.646 379.39 537.677L376.302 536.212L378.634 537.991C383.606 541.783 390.817 539.923 393.334 534.198C394.452 531.656 394.421 528.755 393.25 526.237Z" fill="black"/>
<path d="M376.41 463.619L377.963 459.523L377.046 463.772C375.963 468.788 376.205 473.998 377.747 478.892C378.918 482.607 380.812 486.054 383.319 489.035L396.036 504.153L382.641 491.282C378.376 487.184 375.653 481.741 374.932 475.87C374.424 471.727 374.931 467.522 376.41 463.619Z" fill="black"/>
<path d="M35.5957 529.303L34 530.5L34.4887 530.256C40.0219 527.489 46.7382 529.005 50.5468 533.88L56.5 541.5L49.8815 531.705C46.6812 526.968 40.1687 525.873 35.5957 529.303Z" fill="black"/>
<path d="M172.596 526.303L171 527.5L171.489 527.256C177.022 524.489 183.738 526.005 187.547 530.88L193.5 538.5L186.882 528.705C183.681 523.968 177.169 522.873 172.596 526.303Z" fill="black"/>
<path d="M119.032 523.754L118.461 521.842L118.709 522.329C121.511 527.845 127.812 530.621 133.773 528.968L143.091 526.384L131.944 530.321C126.554 532.225 120.668 529.231 119.032 523.754Z" fill="black"/>
<path d="M72.2366 539.25L53.095 530.346L72.4591 537.599C75.0186 538.558 77.876 538.294 80.2163 536.882C84.1503 534.509 85.6463 529.541 83.677 525.39L82.2119 522.302L83.9906 524.634C87.7829 529.606 85.9227 536.817 80.1982 539.334C77.6557 540.452 74.7549 540.421 72.2366 539.25Z" fill="black"/>
<path d="M154.237 541.25L135.095 532.346L154.459 539.599C157.019 540.558 159.876 540.294 162.216 538.882C166.15 536.509 167.646 531.541 165.677 527.39L164.212 524.302L165.991 526.634C169.783 531.606 167.923 538.817 162.198 541.334C159.656 542.452 156.755 542.421 154.237 541.25Z" fill="black"/>
<path d="M91.6191 524.41L87.5234 525.963L91.7724 525.046C96.7878 523.963 101.998 524.205 106.892 525.747C110.607 526.918 114.054 528.812 117.035 531.319L132.153 544.036L119.282 530.641C115.184 526.376 109.741 523.653 103.87 522.932C99.7269 522.424 95.5223 522.931 91.6191 524.41Z" fill="black"/>
<path d="M182.142 537.845L178.479 535.442L182.429 537.257C187.091 539.4 192.231 540.292 197.342 539.845C201.223 539.506 204.998 538.404 208.451 536.601L225.963 527.457L210.498 537.749C205.574 541.026 199.67 542.506 193.782 541.939C189.627 541.539 185.632 540.134 182.142 537.845Z" fill="black"/>
<path d="M223.596 528.303L222 529.5L222.489 529.256C228.022 526.489 234.738 528.005 238.547 532.88L244.5 540.5L237.882 530.705C234.681 525.968 228.169 524.873 223.596 528.303Z" fill="black"/>
<path d="M360.596 525.303L359 526.5L359.489 526.256C365.022 523.489 371.738 525.005 375.547 529.88L381.5 537.5L374.882 527.705C371.681 522.968 365.169 521.873 360.596 525.303Z" fill="black"/>
<path d="M307.032 522.754L306.461 520.842L306.709 521.329C309.511 526.845 315.812 529.621 321.773 527.968L331.091 525.384L319.944 529.321C314.554 531.225 308.668 528.231 307.032 522.754Z" fill="black"/>
<path d="M260.237 538.25L241.095 529.346L260.459 536.599C263.019 537.558 265.876 537.294 268.216 535.882C272.15 533.509 273.646 528.541 271.677 524.39L270.212 521.302L271.991 523.634C275.783 528.606 273.923 535.817 268.198 538.334C265.656 539.452 262.755 539.421 260.237 538.25Z" fill="black"/>
<path d="M342.237 540.25L323.095 531.346L342.459 538.599C345.019 539.558 347.876 539.294 350.216 537.882C354.15 535.509 355.646 530.541 353.677 526.39L352.212 523.302L353.991 525.634C357.783 530.606 355.923 537.817 350.198 540.334C347.656 541.452 344.755 541.421 342.237 540.25Z" fill="black"/>
<path d="M279.619 523.41L275.523 524.963L279.772 524.046C284.788 522.963 289.998 523.205 294.892 524.747C298.607 525.918 302.054 527.812 305.035 530.319L320.153 543.036L307.282 529.641C303.184 525.376 297.741 522.653 291.87 521.932C287.727 521.424 283.522 521.931 279.619 523.41Z" fill="black"/>
<path d="M369.904 21.9794L371.5 20.7826L371.011 21.027C365.478 23.7936 358.762 22.2777 354.953 17.4028L349 9.78262L355.618 19.5779C358.819 24.3144 365.331 25.4092 369.904 21.9794Z" fill="black"/>
<path d="M232.904 24.9794L234.5 23.7826L234.011 24.027C228.478 26.7936 221.762 25.2777 217.953 20.4028L212 12.7826L218.618 22.5779C221.819 27.3144 228.331 28.4092 232.904 24.9794Z" fill="black"/>
<path d="M286.468 27.5291L287.039 29.4402L286.791 28.9531C283.989 23.4379 277.688 20.6614 271.727 22.3147L262.409 24.8991L273.556 20.9619C278.946 19.0581 284.832 22.0518 286.468 27.5291Z" fill="black"/>
<path d="M333.263 12.0329L352.405 20.9366L333.041 13.6833C330.481 12.7246 327.624 12.9888 325.284 14.4006C321.35 16.7738 319.854 21.7415 321.823 25.8924L323.288 28.9807L321.509 26.6486C317.717 21.6763 319.577 14.4659 325.302 11.9488C327.844 10.8309 330.745 10.8615 333.263 12.0329Z" fill="black"/>
<path d="M251.263 10.0329L270.405 18.9366L251.041 11.6833C248.481 10.7246 245.624 10.9888 243.284 12.4006C239.35 14.7738 237.854 19.7415 239.823 23.8924L241.288 26.9807L239.509 24.6486C235.717 19.6763 237.577 12.4659 243.302 9.94884C245.844 8.83087 248.745 8.86151 251.263 10.0329Z" fill="black"/>
<path d="M313.881 26.8723L317.977 25.3199L313.728 26.2369C308.712 27.3194 303.502 27.0776 298.608 25.5355C294.893 24.3647 291.446 22.4711 288.465 19.9636L273.347 7.24614L286.218 20.6419C290.316 24.9071 295.759 27.6295 301.63 28.3503C305.773 28.859 309.978 28.3518 313.881 26.8723Z" fill="black"/>
<path d="M223.358 13.4381L227.021 15.8402L223.071 14.0252C218.409 11.8829 213.269 10.9911 208.158 11.4375C204.277 11.7765 200.502 12.8791 197.049 14.682L179.537 23.8258L195.002 13.5334C199.926 10.2563 205.83 8.77659 211.718 9.34352C215.873 9.74359 219.868 11.1489 223.358 13.4381Z" fill="black"/>
<path d="M180.904 16.3033L182.5 17.5L182.011 17.2557C176.478 14.4891 169.762 16.0049 165.953 20.8798L160 28.5L166.618 18.7047C169.819 13.9682 176.331 12.8735 180.904 16.3033Z" fill="black"/>
<path d="M43.9043 13.3033L45.5 14.5L45.0113 14.2557C39.4781 11.4891 32.7618 13.0049 28.9532 17.8798L23 25.5L29.6185 15.7047C32.8188 10.9682 39.3313 9.87346 43.9043 13.3033Z" fill="black"/>
<path d="M97.468 10.7536L98.0388 8.84241L97.7913 9.32949C94.9891 14.8447 88.6885 17.6212 82.7272 15.9679L73.409 13.3835L84.5558 17.3207C89.9457 19.2245 95.832 16.2308 97.468 10.7536Z" fill="black"/>
<path d="M144.263 26.2497L163.405 17.3461L144.041 24.5993C141.481 25.5581 138.624 25.2938 136.284 23.882C132.35 21.5088 130.854 16.5411 132.823 12.3902L134.288 9.30191L132.509 11.6341C128.717 16.6063 130.577 23.8167 136.302 26.3338C138.844 27.4517 141.745 27.4211 144.263 26.2497Z" fill="black"/>
<path d="M62.2634 28.2497L81.405 19.3461L62.0409 26.5993C59.4814 27.5581 56.624 27.2938 54.2837 25.882C50.3497 23.5088 48.8537 18.5411 50.823 14.3902L52.2881 11.3019L50.5094 13.6341C46.7171 18.6063 48.5773 25.8167 54.3018 28.3338C56.8443 29.4517 59.7451 29.4211 62.2634 28.2497Z" fill="black"/>
<path d="M124.881 11.4103L128.977 12.9627L124.728 12.0457C119.712 10.9633 114.502 11.205 109.608 12.7471C105.893 13.9179 102.446 15.8115 99.4647 18.3191L84.3466 31.0365L97.2178 17.6408C101.316 13.3755 106.759 10.6531 112.63 9.93229C116.773 9.42358 120.978 9.93085 124.881 11.4103Z" fill="black"/>
<rect x="10" y="13.9393" width="5.57106" height="5.57106" transform="rotate(-45 10 13.9393)" fill="black"/>
<rect x="22" y="279.939" width="5.57106" height="5.57106" transform="rotate(-45 22 279.939)" fill="black"/>
<rect x="9" y="444.939" width="5.57106" height="5.57106" transform="rotate(-45 9 444.939)" fill="black"/>
<rect x="385" y="480.939" width="5.57106" height="5.57106" transform="rotate(-45 385 480.939)" fill="black"/>
<rect x="377" y="188.939" width="5.57106" height="5.57106" transform="rotate(-45 377 188.939)" fill="black"/>
<rect x="200" y="23.9393" width="5.57106" height="5.57106" transform="rotate(-45 200 23.9393)" fill="black"/>
<rect x="389" y="12.5303" width="3.57843" height="3.57843" transform="rotate(-45 389 12.5303)" fill="black"/>
<rect x="379" y="321.53" width="3.57843" height="3.57843" transform="rotate(-45 379 321.53)" fill="black"/>
<rect x="285" y="536.53" width="3.57843" height="3.57843" transform="rotate(-45 285 536.53)" fill="black"/>
<rect x="97" y="532.53" width="3.57843" height="3.57843" transform="rotate(-45 97 532.53)" fill="black"/>
<rect x="25" y="87.5303" width="3.57843" height="3.57843" transform="rotate(-45 25 87.5303)" fill="black"/>
</svg>
