<svg width="185" height="19" viewBox="0 0 185 19" fill="none" xmlns="http://www.w3.org/2000/svg">
<mask id="path-1-inside-1_13_7" fill="white">
<path fill-rule="evenodd" clip-rule="evenodd" d="M185 0H0V16H22V8H163V16H185V0Z"/>
</mask>
<path d="M0 0V-3H-3V0H0ZM185 0H188V-3H185V0ZM0 16H-3V19H0V16ZM22 16V19H25V16H22ZM22 8V5H19V8H22ZM163 8H166V5H163V8ZM163 16H160V19H163V16ZM185 16V19H188V16H185ZM0 3H185V-3H0V3ZM3 16V0H-3V16H3ZM22 13H0V19H22V13ZM25 16V8H19V16H25ZM22 11H163V5H22V11ZM160 8V16H166V8H160ZM185 13H163V19H185V13ZM182 0V16H188V0H182Z" fill="black" mask="url(#path-1-inside-1_13_7)"/>
<path d="M21 7H164V14C164 16.2091 162.209 18 160 18H25C22.7909 18 21 16.2091 21 14V7Z" stroke="black" stroke-width="2"/>
</svg>
