<svg width="112" height="128" viewBox="0 0 112 128" fill="none" xmlns="http://www.w3.org/2000/svg">
<path d="M32 81.5V75M54.5 67V46M54.5 46V15.2825C54.5 12.499 53.6195 9.78685 51.9845 7.53417V7.53417C47.675 1.59672 38.825 1.59672 34.5155 7.53417V7.53417C32.8805 9.78685 32 12.499 32 15.2825V75M54.5 46L56.7532 42.7512C60.8658 36.8214 69.6342 36.8213 73.7468 42.7512V42.7512C75.2139 44.8665 76 47.3794 76 49.9537V54.75M76 67V54.75M76 54.75L77.7435 52.0475C81.6136 46.049 90.3864 46.049 94.2565 52.0475V52.0475C95.3946 53.8117 96 55.8666 96 57.9661V67V59H99.5C105.023 59 109.5 63.4772 109.5 69V92.5871C109.5 110.421 94.9218 124.813 77.0898 124.584L55.7012 124.31C40.6754 124.118 26.8402 116.095 19.2093 103.15L4.11796 77.5483C3.70859 76.8539 3.41222 76.0987 3.23995 75.3112V75.3112C1.90254 69.1973 8.10929 64.1745 13.8098 66.7576L32 75" stroke="#949494" stroke-width="6"/>
</svg>
