<svg width="174" height="134" viewBox="0 0 174 134" fill="none" xmlns="http://www.w3.org/2000/svg">
<mask id="path-1-inside-1_9_117" fill="white">
<path fill-rule="evenodd" clip-rule="evenodd" d="M173.01 100.578C173.222 97.9398 173.33 95.2703 173.33 92.5739C173.33 41.4467 134.529 0 86.6649 0C38.8012 0 0 41.4467 0 92.5739C0 107.435 3.27849 121.479 9.10507 133.925L173.01 100.578Z"/>
</mask>
<path d="M173.01 100.578L174.406 107.437L179.567 106.387L179.988 101.137L173.01 100.578ZM9.10507 133.925L2.76544 136.893L5.10156 141.883L10.5006 140.784L9.10507 133.925ZM166.33 92.5739C166.33 95.0835 166.229 97.5664 166.033 100.018L179.988 101.137C180.214 98.3133 180.33 95.4571 180.33 92.5739H166.33ZM86.6649 7C130.235 7 166.33 44.8706 166.33 92.5739H180.33C180.33 38.0228 138.822 -7 86.6649 -7V7ZM7 92.5739C7 44.8706 43.0949 7 86.6649 7V-7C34.5075 -7 -7 38.0228 -7 92.5739H7ZM15.4447 130.957C10.049 119.431 7 106.4 7 92.5739H-7C-7 108.471 -3.49198 123.527 2.76544 136.893L15.4447 130.957ZM10.5006 140.784L174.406 107.437L171.615 93.7183L7.7095 127.065L10.5006 140.784Z" fill="black" mask="url(#path-1-inside-1_9_117)"/>
</svg>
