<svg width="199" height="171" viewBox="0 0 199 171" fill="none" xmlns="http://www.w3.org/2000/svg">
<path d="M182.2 55.4758L178.875 45.7242C183.543 42.9161 199.753 35.8758 193.844 28.3911C192.378 22.4193 172.966 4.36145 172.966 4.36145H5L5.85858 10.5492C8.90382 32.4963 17.4247 53.3237 30.6359 71.1117L39.7878 83.4341C56.1786 105.503 65.0289 132.263 65.0289 159.753V167.449H146.573L156.421 91.8142C164.034 97.8811 175.37 93.8335 177.418 84.317L179.27 75.7131C180.057 72.0572 179.349 68.2385 177.303 65.1081L176.905 64.5C181.056 63.7399 183.561 59.4694 182.2 55.4758Z" stroke="#AE7EB6" stroke-width="7"/>
</svg>
