<svg width="174" height="96" viewBox="0 0 174 96" fill="none" xmlns="http://www.w3.org/2000/svg">
<mask id="path-1-inside-1_9_117" fill="white">
<path fill-rule="evenodd" clip-rule="evenodd" d="M173.272 96C173.31 94.8631 173.33 93.7209 173.33 92.5739C173.33 41.4467 134.529 0 86.6649 0C38.8012 0 0 41.4467 0 92.5739C0 93.7209 0.0195299 94.8631 0.0582539 96H173.272Z"/>
</mask>
<path d="M173.272 96V103H180.037L180.267 96.2383L173.272 96ZM0.0582539 96L-6.93769 96.2383L-6.70739 103H0.0582539V96ZM166.33 92.5739C166.33 93.6414 166.312 94.7041 166.276 95.7617L180.267 96.2383C180.309 95.022 180.33 93.8004 180.33 92.5739H166.33ZM86.6649 7C130.235 7 166.33 44.8706 166.33 92.5739H180.33C180.33 38.0228 138.822 -7 86.6649 -7V7ZM7 92.5739C7 44.8706 43.0949 7 86.6649 7V-7C34.5075 -7 -7 38.0228 -7 92.5739H7ZM7.0542 95.7617C7.01818 94.7042 7 93.6414 7 92.5739H-7C-7 93.8004 -6.97912 95.022 -6.93769 96.2383L7.0542 95.7617ZM0.0582539 103H173.272V89H0.0582539V103Z" fill="#865B8D" mask="url(#path-1-inside-1_9_117)"/>
</svg>
