<svg width="137" height="195" viewBox="0 0 137 195" fill="none" xmlns="http://www.w3.org/2000/svg">
<mask id="path-1-inside-1_9_110" fill="white">
<path fill-rule="evenodd" clip-rule="evenodd" d="M110.003 123C126.411 110.485 137 90.7292 137 68.5C137 30.6685 106.332 0 68.5 0C30.6685 0 0 30.6685 0 68.5C0 90.7292 10.5885 110.485 26.997 123H110.003Z"/>
</mask>
<path d="M110.003 123V130H112.368L114.248 128.566L110.003 123ZM26.997 123L22.752 128.566L24.6322 130H26.997V123ZM130 68.5C130 88.4534 120.505 106.187 105.758 117.434L114.248 128.566C132.318 114.784 144 93.0051 144 68.5H130ZM68.5 7C102.466 7 130 34.5345 130 68.5H144C144 26.8025 110.197 -7 68.5 -7V7ZM7 68.5C7 34.5345 34.5345 7 68.5 7V-7C26.8025 -7 -7 26.8025 -7 68.5H7ZM31.2421 117.434C16.4949 106.187 7 88.4534 7 68.5H-7C-7 93.0051 4.68213 114.784 22.752 128.566L31.2421 117.434ZM26.997 130H110.003V116H26.997V130Z" fill="#E326A3" mask="url(#path-1-inside-1_9_110)"/>
<rect x="25.5" y="129.5" width="85" height="7" rx="3.5" stroke="#E326A3" stroke-width="7"/>
<rect x="31.5" y="146.5" width="74" height="7" rx="3.5" stroke="#E326A3" stroke-width="7"/>
<path d="M66.4057 189.067C67.6478 189.995 69.3522 189.995 70.5943 189.067L96.7218 169.554C99.4196 167.539 97.9946 163.25 94.6274 163.25H42.3726C39.0054 163.25 37.5804 167.539 40.2782 169.554L66.4057 189.067L64.3255 191.853L66.4057 189.067Z" stroke="#E326A3" stroke-width="7"/>
<path d="M68 35.7082L74.3519 55.2574L75.0254 57.3303H77.2051H97.7603L81.1308 69.4123L79.3674 70.6935L80.041 72.7664L86.3929 92.3156L69.7634 80.2336L68 78.9524L66.2366 80.2336L49.6071 92.3156L55.959 72.7664L56.6326 70.6935L54.8692 69.4123L38.2397 57.3303H58.7949H60.9746L61.6481 55.2574L68 35.7082Z" stroke="#E326A3" stroke-width="6"/>
</svg>
