<?xml version="1.0" encoding="UTF-8"?>
<svg width="330px" height="566px" viewBox="0 0 330 566" version="1.1" xmlns="http://www.w3.org/2000/svg" xmlns:xlink="http://www.w3.org/1999/xlink">
    <title>Path 64</title>
    <g id="Page-1" stroke="none" stroke-width="1" fill="none" fill-rule="evenodd">
        <g id="Artboard" transform="translate(-765.000000, -164.000000)" fill="#9C9C9C">
            <g id="LogoVector" transform="translate(559.854827, 139.823376)">
                <path d="M214.892283,431.500678 C212.853127,426.641154 201.647097,393.418905 207.145173,348.734099 C212.64325,304.049293 235.638265,288.228723 251.718965,275.804151 C267.799664,263.379579 449.120428,154.182115 463.935858,139.711247 C470.911253,132.898078 503.497948,108.311765 508.003284,69.8320457 C509.435451,57.6000206 500.50611,32.8179327 496.087636,25.956821 C491.669163,19.0957094 539.64511,35.5209314 534.109832,67.6407053 C528.574554,99.7604792 501.482609,121.355253 467.531312,148.338769 C433.580014,175.322285 413.468375,175.322285 409.776038,195.436861 C406.083701,215.551436 413.813486,498.48639 419.371031,522.331841 C424.928575,546.177291 448.063921,552.75039 457.386022,550.784771 C466.708122,548.819153 496.087636,531.084781 500.641206,530.24685 C503.50444,529.719969 427.758675,585.660183 416.582347,588.715271 C405.406019,591.77036 390.422829,588.312079 386.137448,564.434706 C381.852067,540.557333 376.093861,217.013496 370.932614,212.684077 C365.771367,208.354658 291.18234,261.505557 281.25081,269.286535 C237.085999,303.887993 226.484723,346.260317 222.593247,361.786768 C213.809145,396.834121 226.457821,449.388025 224.500579,450.703291 C222.543337,452.018558 216.931438,436.360201 214.892283,431.500678 Z" id="Path-64"></path>
            </g>
        </g>
    </g>
</svg>