<svg width="201" height="164" viewBox="0 0 201 164" fill="none" xmlns="http://www.w3.org/2000/svg">
<path fill-rule="evenodd" clip-rule="evenodd" d="M84.6707 3.38636C95.3193 0.189244 106.675 0.204946 117.314 3.4315L189.708 25.3853C192.764 26.3121 195.337 28.1843 197.146 30.6232C198.955 33.062 200 36.0676 200 39.2613V148.136C200 152.14 198.377 155.765 195.753 158.389C193.129 161.013 189.504 162.636 185.5 162.636H15.5C11.4959 162.636 7.87094 161.013 5.24695 158.389C2.62297 155.765 1 152.14 1 148.136V39.2935C1 36.0924 2.04967 33.0808 3.86581 30.6393C5.68194 28.1978 8.26455 26.3264 11.3304 25.4059L84.6707 3.38636Z" fill="#E6E4FF" stroke="#979797"/>
<path d="M4.5 46.5H196.5" stroke="#BFBFBF" stroke-linecap="square"/>
<mask id="path-3-inside-1_107_15" fill="white">
<path fill-rule="evenodd" clip-rule="evenodd" d="M168.205 54H166C165.448 54 165 54.4477 165 55V55.997C166.045 56.448 166.776 57.4782 166.776 58.6768C166.776 59.8755 166.045 60.9057 165 61.3567V63.0125C166.045 63.4636 166.776 64.4937 166.776 65.6924C166.776 66.8911 166.045 67.9212 165 68.3723V70.0278C166.045 70.4789 166.776 71.509 166.776 72.7077C166.776 73.9063 166.045 74.9365 165 75.3876V77.0431C166.045 77.4942 166.776 78.5243 166.776 79.723C166.776 80.9216 166.045 81.9518 165 82.4029V84.0585C166.045 84.5096 166.776 85.5397 166.776 86.7384C166.776 87.9371 166.045 88.9672 165 89.4183V91C165 91.5523 165.448 92 166 92H168.205C168.662 90.9676 169.705 90.2462 170.918 90.2462C172.132 90.2462 173.175 90.9676 173.631 92H177.083C177.54 90.9676 178.583 90.2462 179.796 90.2462C181.009 90.2462 182.052 90.9676 182.509 92H185.96C186.417 90.9676 187.46 90.2462 188.673 90.2462C189.887 90.2462 190.93 90.9676 191.386 92H193C193.552 92 194 91.5523 194 91V89.4183C192.955 88.9672 192.224 87.9371 192.224 86.7384C192.224 85.5398 192.955 84.5096 194 84.0585V82.4028C192.955 81.9518 192.224 80.9216 192.224 79.723C192.224 78.5243 192.955 77.4942 194 77.0431V75.3875C192.955 74.9365 192.224 73.9063 192.224 72.7077C192.224 71.509 192.955 70.4789 194 70.0278V68.3722C192.955 67.9212 192.224 66.891 192.224 65.6924C192.224 64.4937 192.955 63.4636 194 63.0125V61.3567C192.955 60.9056 192.224 59.8755 192.224 58.6768C192.224 57.4782 192.955 56.4481 194 55.997V55C194 54.4477 193.552 54 193 54H191.386C190.93 55.0324 189.887 55.7538 188.673 55.7538C187.46 55.7538 186.417 55.0324 185.96 54H182.509C182.052 55.0324 181.009 55.7538 179.796 55.7538C178.582 55.7538 177.54 55.0324 177.083 54H173.631C173.175 55.0324 172.132 55.7538 170.918 55.7538C169.705 55.7538 168.662 55.0324 168.205 54Z"/>
</mask>
<path fill-rule="evenodd" clip-rule="evenodd" d="M168.205 54H166C165.448 54 165 54.4477 165 55V55.997C166.045 56.448 166.776 57.4782 166.776 58.6768C166.776 59.8755 166.045 60.9057 165 61.3567V63.0125C166.045 63.4636 166.776 64.4937 166.776 65.6924C166.776 66.8911 166.045 67.9212 165 68.3723V70.0278C166.045 70.4789 166.776 71.509 166.776 72.7077C166.776 73.9063 166.045 74.9365 165 75.3876V77.0431C166.045 77.4942 166.776 78.5243 166.776 79.723C166.776 80.9216 166.045 81.9518 165 82.4029V84.0585C166.045 84.5096 166.776 85.5397 166.776 86.7384C166.776 87.9371 166.045 88.9672 165 89.4183V91C165 91.5523 165.448 92 166 92H168.205C168.662 90.9676 169.705 90.2462 170.918 90.2462C172.132 90.2462 173.175 90.9676 173.631 92H177.083C177.54 90.9676 178.583 90.2462 179.796 90.2462C181.009 90.2462 182.052 90.9676 182.509 92H185.96C186.417 90.9676 187.46 90.2462 188.673 90.2462C189.887 90.2462 190.93 90.9676 191.386 92H193C193.552 92 194 91.5523 194 91V89.4183C192.955 88.9672 192.224 87.9371 192.224 86.7384C192.224 85.5398 192.955 84.5096 194 84.0585V82.4028C192.955 81.9518 192.224 80.9216 192.224 79.723C192.224 78.5243 192.955 77.4942 194 77.0431V75.3875C192.955 74.9365 192.224 73.9063 192.224 72.7077C192.224 71.509 192.955 70.4789 194 70.0278V68.3722C192.955 67.9212 192.224 66.891 192.224 65.6924C192.224 64.4937 192.955 63.4636 194 63.0125V61.3567C192.955 60.9056 192.224 59.8755 192.224 58.6768C192.224 57.4782 192.955 56.4481 194 55.997V55C194 54.4477 193.552 54 193 54H191.386C190.93 55.0324 189.887 55.7538 188.673 55.7538C187.46 55.7538 186.417 55.0324 185.96 54H182.509C182.052 55.0324 181.009 55.7538 179.796 55.7538C178.582 55.7538 177.54 55.0324 177.083 54H173.631C173.175 55.0324 172.132 55.7538 170.918 55.7538C169.705 55.7538 168.662 55.0324 168.205 54Z" fill="white"/>
<path d="M168.205 54L169.12 53.5955L168.856 53H168.205V54ZM165 55.997H164V56.6546L164.604 56.9151L165 55.997ZM165 61.3567L164.604 60.4386L164 60.6991V61.3567H165ZM165 63.0125H164V63.6701L164.604 63.9307L165 63.0125ZM165 68.3723L164.604 67.4541L164 67.7147V68.3723H165ZM165 70.0278H164V70.6854L164.604 70.946L165 70.0278ZM165 75.3876L164.604 74.4694L164 74.73V75.3876H165ZM165 77.0431H164V77.7007L164.604 77.9613L165 77.0431ZM165 82.4029L164.604 81.4847L164 81.7453V82.4029H165ZM165 84.0585H164V84.7161L164.604 84.9767L165 84.0585ZM165 89.4183L164.604 88.5001L164 88.7607V89.4183H165ZM168.205 92V93H168.856L169.12 92.4045L168.205 92ZM173.631 92L172.717 92.4045L172.98 93H173.631V92ZM177.083 92V93H177.734L177.998 92.4045L177.083 92ZM182.509 92L181.594 92.4045L181.858 93H182.509V92ZM185.96 92V93H186.611L186.875 92.4045L185.96 92ZM191.386 92L190.472 92.4045L190.735 93H191.386V92ZM194 89.4183H195V88.7607L194.396 88.5001L194 89.4183ZM194 84.0585L194.396 84.9767L195 84.7161V84.0585H194ZM194 82.4028H195V81.7453L194.396 81.4847L194 82.4028ZM194 77.0431L194.396 77.9613L195 77.7007V77.0431H194ZM194 75.3875H195V74.73L194.396 74.4694L194 75.3875ZM194 70.0278L194.396 70.946L195 70.6854V70.0278H194ZM194 68.3722H195V67.7147L194.396 67.4541L194 68.3722ZM194 63.0125L194.396 63.9307L195 63.6701V63.0125H194ZM194 61.3567H195V60.6991L194.396 60.4386L194 61.3567ZM194 55.997L194.396 56.9151L195 56.6546V55.997H194ZM191.386 54V53H190.735L190.472 53.5955L191.386 54ZM185.96 54L186.875 53.5955L186.612 53H185.96V54ZM182.509 54V53H181.858L181.594 53.5955L182.509 54ZM177.083 54L177.998 53.5955L177.734 53H177.083V54ZM173.631 54V53H172.98L172.717 53.5955L173.631 54ZM166 55H168.205V53H166V55ZM166 55V55V53C164.895 53 164 53.8954 164 55H166ZM166 55.997V55H164V55.997H166ZM164.604 56.9151C165.301 57.2159 165.776 57.8969 165.776 58.6768H167.776C167.776 57.0595 166.79 55.6801 165.396 55.0788L164.604 56.9151ZM165.776 58.6768C165.776 59.4568 165.301 60.1378 164.604 60.4386L165.396 62.2749C166.79 61.6736 167.776 60.2942 167.776 58.6768H165.776ZM166 63.0125V61.3567H164V63.0125H166ZM164.604 63.9307C165.301 64.2315 165.776 64.9124 165.776 65.6924H167.776C167.776 64.0751 166.79 62.6957 165.396 62.0944L164.604 63.9307ZM165.776 65.6924C165.776 66.4724 165.301 67.1533 164.604 67.4541L165.396 69.2904C166.79 68.6891 167.776 67.3097 167.776 65.6924H165.776ZM166 70.0278V68.3723H164V70.0278H166ZM164.604 70.946C165.301 71.2468 165.776 71.9277 165.776 72.7077H167.776C167.776 71.0904 166.79 69.711 165.396 69.1097L164.604 70.946ZM165.776 72.7077C165.776 73.4877 165.301 74.1686 164.604 74.4694L165.396 76.3057C166.79 75.7044 167.776 74.325 167.776 72.7077H165.776ZM166 77.0431V75.3876H164V77.0431H166ZM164.604 77.9613C165.301 78.2621 165.776 78.943 165.776 79.723H167.776C167.776 78.1057 166.79 76.7263 165.396 76.125L164.604 77.9613ZM165.776 79.723C165.776 80.503 165.301 81.1839 164.604 81.4847L165.396 83.321C166.79 82.7197 167.776 81.3403 167.776 79.723H165.776ZM166 84.0585V82.4029H164V84.0585H166ZM164.604 84.9767C165.301 85.2775 165.776 85.9584 165.776 86.7384H167.776C167.776 85.1211 166.79 83.7417 165.396 83.1404L164.604 84.9767ZM165.776 86.7384C165.776 87.5184 165.301 88.1993 164.604 88.5001L165.396 90.3364C166.79 89.7351 167.776 88.3557 167.776 86.7384H165.776ZM166 91V89.4183H164V91H166ZM166 91H166H164C164 92.1046 164.895 93 166 93V91ZM168.205 91H166V93H168.205V91ZM170.918 89.2462C169.3 89.2462 167.904 90.2092 167.291 91.5955L169.12 92.4045C169.42 91.726 170.109 91.2462 170.918 91.2462V89.2462ZM174.546 91.5955C173.933 90.2092 172.536 89.2462 170.918 89.2462V91.2462C171.727 91.2462 172.417 91.726 172.717 92.4045L174.546 91.5955ZM177.083 91H173.631V93H177.083V91ZM179.796 89.2462C178.178 89.2462 176.782 90.2092 176.168 91.5955L177.998 92.4045C178.298 91.726 178.987 91.2462 179.796 91.2462V89.2462ZM183.423 91.5955C182.81 90.2092 181.414 89.2462 179.796 89.2462V91.2462C180.605 91.2462 181.294 91.726 181.594 92.4045L183.423 91.5955ZM185.96 91H182.509V93H185.96V91ZM188.673 89.2462C187.055 89.2462 185.659 90.2092 185.046 91.5955L186.875 92.4045C187.175 91.726 187.864 91.2462 188.673 91.2462V89.2462ZM192.301 91.5955C191.688 90.2092 190.291 89.2462 188.673 89.2462V91.2462C189.482 91.2462 190.172 91.726 190.472 92.4045L192.301 91.5955ZM193 91H191.386V93H193V91ZM193 91V93C194.105 93 195 92.1046 195 91H193ZM193 89.4183V91H195V89.4183H193ZM191.224 86.7384C191.224 88.3557 192.21 89.7351 193.604 90.3364L194.396 88.5001C193.699 88.1993 193.224 87.5184 193.224 86.7384H191.224ZM193.604 83.1404C192.21 83.7417 191.224 85.1211 191.224 86.7384H193.224C193.224 85.9584 193.699 85.2775 194.396 84.9767L193.604 83.1404ZM193 82.4028V84.0585H195V82.4028H193ZM191.224 79.723C191.224 81.3403 192.21 82.7197 193.604 83.321L194.396 81.4847C193.699 81.1839 193.224 80.503 193.224 79.723H191.224ZM193.604 76.125C192.21 76.7263 191.224 78.1057 191.224 79.723H193.224C193.224 78.943 193.699 78.2621 194.396 77.9613L193.604 76.125ZM193 75.3875V77.0431H195V75.3875H193ZM191.224 72.7077C191.224 74.325 192.21 75.7044 193.604 76.3057L194.396 74.4694C193.699 74.1686 193.224 73.4877 193.224 72.7077H191.224ZM193.604 69.1097C192.21 69.711 191.224 71.0904 191.224 72.7077H193.224C193.224 71.9277 193.699 71.2468 194.396 70.946L193.604 69.1097ZM193 68.3722V70.0278H195V68.3722H193ZM191.224 65.6924C191.224 67.3097 192.21 68.6891 193.604 69.2904L194.396 67.4541C193.699 67.1533 193.224 66.4724 193.224 65.6924H191.224ZM193.604 62.0944C192.21 62.6957 191.224 64.0751 191.224 65.6924H193.224C193.224 64.9124 193.699 64.2315 194.396 63.9307L193.604 62.0944ZM193 61.3567V63.0125H195V61.3567H193ZM191.224 58.6768C191.224 60.2942 192.21 61.6735 193.604 62.2748L194.396 60.4386C193.699 60.1377 193.224 59.4568 193.224 58.6768H191.224ZM193.604 55.0789C192.21 55.6802 191.224 57.0595 191.224 58.6768H193.224C193.224 57.8969 193.699 57.2159 194.396 56.9151L193.604 55.0789ZM193 55V55.997H195V55H193ZM193 55H195C195 53.8954 194.105 53 193 53V55ZM191.386 55H193V53H191.386V55ZM190.472 53.5955C190.172 54.274 189.482 54.7538 188.673 54.7538V56.7538C190.291 56.7538 191.688 55.7908 192.301 54.4045L190.472 53.5955ZM188.673 54.7538C187.865 54.7538 187.175 54.274 186.875 53.5955L185.046 54.4045C185.659 55.7908 187.055 56.7538 188.673 56.7538V54.7538ZM182.509 55H185.96V53H182.509V55ZM179.796 56.7538C181.414 56.7538 182.81 55.7908 183.423 54.4045L181.594 53.5955C181.294 54.274 180.605 54.7538 179.796 54.7538V56.7538ZM176.168 54.4045C176.782 55.7908 178.178 56.7538 179.796 56.7538V54.7538C178.987 54.7538 178.298 54.274 177.998 53.5955L176.168 54.4045ZM173.631 55H177.083V53H173.631V55ZM172.717 53.5955C172.417 54.274 171.727 54.7538 170.918 54.7538V56.7538C172.536 56.7538 173.933 55.7908 174.546 54.4045L172.717 53.5955ZM170.918 54.7538C170.109 54.7538 169.42 54.274 169.12 53.5955L167.291 54.4045C167.904 55.7908 169.3 56.7538 170.918 56.7538V54.7538Z" fill="#CDCDCD" mask="url(#path-3-inside-1_107_15)"/>
<path fill-rule="evenodd" clip-rule="evenodd" d="M171.432 77.3513C171.337 77.1322 170.814 75.6346 171.07 73.6202C171.327 71.6058 172.4 70.8926 173.15 70.3325C173.901 69.7724 182.364 64.8498 183.055 64.1975C183.381 63.8904 184.901 62.782 185.112 61.0474C185.179 60.4959 184.762 59.3788 184.556 59.0695C184.349 58.7602 186.588 59.5006 186.33 60.9486C186.072 62.3965 184.807 63.37 183.223 64.5864C181.638 65.8028 180.7 65.8028 180.527 66.7096C180.355 67.6163 180.716 80.371 180.975 81.4459C181.234 82.5209 182.314 82.8172 182.749 82.7286C183.184 82.64 184.556 81.8405 184.768 81.8027C184.902 81.779 181.367 84.3007 180.845 84.4385C180.323 84.5762 179.624 84.4203 179.424 83.3439C179.224 82.2675 178.955 67.6823 178.714 67.4871C178.473 67.2919 174.992 69.6879 174.529 70.0387C172.468 71.5985 171.973 73.5087 171.791 74.2086C171.381 75.7885 171.971 78.1576 171.88 78.2169C171.789 78.2762 171.527 77.5703 171.432 77.3513Z" fill="#9C9C9C"/>
<path fill-rule="evenodd" clip-rule="evenodd" d="M172.832 81.2737V72.3326H175.536C176.083 72.3326 178.494 72.4301 178.494 74.6205C178.494 76.0808 177.708 76.9181 176.137 77.1325L178.695 81.2737H177.925L175.387 77.1325H173.47V81.2737H172.832ZM173.475 76.6529V72.8787H175.619C177.148 72.966 177.896 73.595 177.863 74.7658C177.83 75.9366 177.082 76.5657 175.619 76.6529H173.475Z" fill="#A4ADDC"/>
<path fill-rule="evenodd" clip-rule="evenodd" d="M187.97 72.3326V81.2737H187.315V78.1938L185.375 76.084L182.315 81.2737H181.566L184.984 75.6525L181.973 72.3326H182.749L187.315 77.327V72.3326H187.97Z" fill="#B3A5C6"/>
<rect x="169.5" y="58.5" width="20" height="29" stroke="#BFBFBF"/>
</svg>
