<svg width="201" height="164" viewBox="0 0 201 164" fill="none" xmlns="http://www.w3.org/2000/svg">
<path fill-rule="evenodd" clip-rule="evenodd" d="M84.6707 3.38636C95.3193 0.189244 106.675 0.204946 117.314 3.4315L189.708 25.3853C192.764 26.3121 195.337 28.1843 197.146 30.6232C198.955 33.062 200 36.0676 200 39.2613V148.136C200 152.14 198.377 155.765 195.753 158.389C193.129 161.013 189.504 162.636 185.5 162.636H15.5C11.4959 162.636 7.87094 161.013 5.24695 158.389C2.62297 155.765 1 152.14 1 148.136V39.2935C1 36.0924 2.04967 33.0808 3.86581 30.6393C5.68194 28.1978 8.26455 26.3264 11.3304 25.4059L84.6707 3.38636Z" fill="#CCCAE7" stroke="#979797"/>
<path fill-rule="evenodd" clip-rule="evenodd" d="M200 50V149.719C200 153.387 198.377 156.707 195.753 159.11C193.129 161.514 189.504 163 185.5 163H15.5C11.4959 163 7.87094 161.514 5.24695 159.11C2.62297 156.707 1 153.387 1 149.719V50.0295L91.263 103.979C96.9515 107.379 104.048 107.378 109.736 103.977L200 50Z" fill="#D9D6FD" stroke="#979797"/>
<line y1="-0.5" x2="94.1116" y2="-0.5" transform="matrix(0.733172 -0.680044 0.863742 0.503935 8 160)" stroke="#9C9C9C"/>
<line y1="-0.5" x2="94.1116" y2="-0.5" transform="matrix(-0.733172 -0.680044 -0.863742 0.503935 193 160)" stroke="#9C9C9C"/>
<line x1="8" y1="45.5" x2="194" y2="45.5" stroke="#9C9C9C"/>
</svg>
