<?xml version="1.0" encoding="UTF-8"?>
<svg width="200px" height="166px" viewBox="0 0 200 166" version="1.1" xmlns="http://www.w3.org/2000/svg" xmlns:xlink="http://www.w3.org/1999/xlink">
    <title>mail-front</title>
    <g id="Page-1" stroke="none" stroke-width="1" fill="none" fill-rule="evenodd">
        <g id="Mobile-White" transform="translate(-60.000000, -2786.000000)">
            <g id="mail-front" transform="translate(60.000000, 2786.826072)">
                <line x1="0.5" y1="48.6739284" x2="199.5" y2="48.6739284" id="main-line" stroke="#DCDCDC" stroke-linecap="square"></line>
                <path d="M84.1706933,5.42472945 C94.819305,2.22761059 106.174513,2.24331287 116.814241,5.46986982 L116.814241,5.46986982 L189.20797,27.4236707 C192.264188,28.3504859 194.837196,30.2226529 196.646149,32.6615309 C198.455102,35.1004089 199.5,38.1059977 199.5,41.2996567 L199.5,41.2996567 L199.5,150.173928 C199.5,154.177993 197.877032,157.802993 195.253048,160.426977 C192.629064,163.050961 189.004064,164.673928 185,164.673928 L185,164.673928 L15,164.673928 C10.9959356,164.673928 7.37093556,163.050961 4.74695167,160.426977 C2.12296778,157.802993 0.5,154.177993 0.5,150.173928 L0.5,150.173928 L0.5,41.3318434 C0.5,38.1307695 1.54966971,35.1191226 3.36580734,32.6776212 C5.18194497,30.2361199 7.76455053,28.3647641 10.8304222,27.4442726 L10.8304222,27.4442726 Z" id="main-frame" stroke="#979797"></path>
            </g>
        </g>
    </g>
</svg>