<?xml version="1.0" encoding="UTF-8"?>
<svg width="201px" height="164px" viewBox="0 0 201 164" version="1.1" xmlns="http://www.w3.org/2000/svg" xmlns:xlink="http://www.w3.org/1999/xlink">
    <title>mail-back</title>
    <g id="Page-1" stroke="none" stroke-width="1" fill="none" fill-rule="evenodd">
        <g id="Artboard" transform="translate(-510.000000, -766.000000)">
            <g id="mail-back" transform="translate(511.000000, 767.000000)">
                <path d="M0,39.6355612 L83.8099153,13.1111628 C94.0203981,9.87972042 104.979602,9.87972042 115.190085,13.1111628 L199,39.6355612 L199,39.6355612" id="main-line-top" stroke="#DCDCDC" stroke-linecap="square"></path>
                <path d="M83.6706933,2.38636227 C94.319305,-0.81075659 105.674513,-0.79505431 116.314241,2.43150264 L116.314241,2.43150264 L188.70797,24.3853035 C191.764188,25.3121187 194.337196,27.1842857 196.146149,29.6231637 C197.955102,32.0620417 199,35.0676305 199,38.2612895 L199,38.2612895 L199,147.135561 C199,151.139626 197.377032,154.764626 194.753048,157.38861 C192.129064,160.012594 188.504064,161.635561 184.5,161.635561 L184.5,161.635561 L14.5,161.635561 C10.4959356,161.635561 6.87093556,160.012594 4.24695167,157.38861 C1.62296778,154.764626 0,151.139626 0,147.135561 L0,147.135561 L0,38.2934762 C0,35.0924023 1.04966971,32.0807554 2.86580734,29.639254 C4.68194497,27.1977527 7.26455053,25.3263969 10.3304222,24.4059054 L10.3304222,24.4059054 L83.6706933,2.38636227 Z" id="main-frame" stroke="#979797" fill="#F3F2FF"></path>
                <path d="M0,48.6355612 L87.6737166,76.0119323 C95.0489774,78.3148788 102.951023,78.3148788 110.326283,76.0119323 L198,48.6355612 L198,48.6355612" id="mail-line-bottom" stroke="#979797" stroke-linecap="square"></path>
            </g>
        </g>
    </g>
</svg>