<?xml version="1.0" encoding="UTF-8"?>
<svg width="294px" height="114px" viewBox="0 0 294 114" version="1.1" xmlns="http://www.w3.org/2000/svg" xmlns:xlink="http://www.w3.org/1999/xlink">
    <title>Mask</title>
    <g id="Page-1" stroke="none" stroke-width="1" fill="none" fill-rule="evenodd">
        <g id="Mobile-White" transform="translate(-13.000000, -737.000000)">
            <g id="Mask" transform="translate(14.274794, 738.850423)">
                <g id="Mask-Left">
                    <path d="M146.225206,45.8488754 L133.629947,35.5892221 C118.984369,23.6594506 100.284636,17.8711621 81.4604816,19.4407607 L64.9186692,20.8200527 C50.383536,22.0320235 35.8066519,19.0358449 22.9279236,12.189143 L0,0 L0,0 L17.0012985,44.9442597 C22.6158619,59.7867963 34.2403573,71.5661106 49.0073162,77.3765442 L49.0073162,77.3765442 L49.0073162,77.3765442 C42.3751281,80.1648147 35.0037646,80.6673064 28.0545457,78.8048544 L22.7252055,77.3765442 L22.7252055,77.3765442 L44.0581705,92.4432736 C53.2732178,98.9515403 63.7048519,103.536872 74.730651,105.925676 L80.8243906,107.245921 C93.5462774,110.002192 106.776879,109.265266 119.113983,105.113244 L128.496198,101.955682 C134.385458,99.9736659 140.880526,101.16935 145.677879,105.118677 L146.225206,105.569253 L146.225206,105.569253 L146.225206,45.8488754 Z" id="Path-2" stroke="#979797" fill="#ECECEC"></path>
                    <path d="M142.418605,97.3448652 L137.474733,64.0596608 C136.237199,55.7278149 131.439133,48.3453469 124.327662,43.8311317 C116.973257,39.1627065 108.590864,36.3591798 99.9076697,35.6637623 L76.7812152,33.8116168 C72.5108433,33.4696123 68.2668618,32.8535446 64.0755046,31.9672218 L50.7168397,29.1423397 C45.8789466,28.1192975 41.1235988,26.7388232 36.4899323,25.0122777 L15.0312665,17.0165875 L15.0312665,17.0165875 L35.5193347,43.7234538 C31.7962439,43.7234538 28.2132472,42.3038378 25.5004697,39.7538881 L24.7700407,39.0673012 L24.7700407,39.0673012 L28.1087172,44.0928102 C31.1287421,48.6386719 34.7178269,52.7795715 38.7886016,56.4147059 L43.8245101,60.9116889 C46.5804499,63.3726975 49.514482,65.6266876 52.6026391,67.6552469 L55.5357442,69.5819551 C58.1226341,71.2812404 59.6804862,74.1684619 59.6804862,77.2635499 C59.6804862,80.1911209 57.720439,82.7562424 54.8957143,83.5253996 L49.9764385,84.8648918 L49.9764385,84.8648918 L52.0617069,85.6026374 C56.8562058,87.2988798 62.170128,86.6317535 66.3965445,83.8029973 C70.628958,80.9702273 75.9406674,80.2742609 80.7600116,81.921025 L105.64276,90.4234303 C110.623524,92.1253514 115.748462,93.3717579 120.954522,94.1473155 L142.418605,97.3448652 L142.418605,97.3448652 Z" id="Path-3-Copy" fill="#929292"></path>
                    <path d="M132.450005,88.29808 L129.277781,69.6848432 C127.757019,60.7616658 121.581197,53.3326744 113.085971,50.2074635 L102.322502,46.2478151 C100.34441,45.5201177 98.3239043,44.9133592 96.2721679,44.4308979 L79.8283937,40.5641804 C79.0928111,40.3912098 78.3542683,40.2310793 77.6131018,40.0838622 L43.4500051,33.29808 L43.4500051,33.29808 L56.407728,54.2218835 C62.2796702,63.7037475 71.1531805,70.9502082 81.6171979,74.8089373 L97.3664718,80.6166668 C102.503578,82.5110349 107.799539,83.9430307 113.191301,84.8956045 L132.450005,88.29808 L132.450005,88.29808 Z" id="Path-3-Copy-2" fill="#FF0000"></path>
                    <path d="M127.882732,83.29808 L126.309969,74.5419253 C124.345994,63.6077455 116.423889,54.6944473 105.795712,51.4609764 L93.0809848,47.5927026 C90.0162665,46.6603059 86.9067993,45.8818929 83.7642542,45.2603853 L52.4500051,39.0673012 L52.4500051,39.0673012 L61.8136593,53.4139151 C67.8432025,62.6521383 76.758725,69.6369326 87.1715026,73.2803131 L97.2708332,76.81402 C102.208888,78.5418215 107.285322,79.8452703 112.444934,80.7101925 L127.882732,83.29808 L127.882732,83.29808 Z" id="Path-3" fill="#D8D8D8"></path>
                </g>
                <g id="Mask-Right" transform="translate(219.112603, 55.728722) scale(-1, 1) translate(-219.112603, -55.728722) translate(146.000000, 0.000000)">
                    <path d="M146.225206,45.8488754 L133.629947,35.5892221 C118.984369,23.6594506 100.284636,17.8711621 81.4604816,19.4407607 L64.9186692,20.8200527 C50.383536,22.0320235 35.8066519,19.0358449 22.9279236,12.189143 L0,0 L0,0 L17.0012985,44.9442597 C22.6158619,59.7867963 34.2403573,71.5661106 49.0073162,77.3765442 L49.0073162,77.3765442 L49.0073162,77.3765442 C42.3751281,80.1648147 35.0037646,80.6673064 28.0545457,78.8048544 L22.7252055,77.3765442 L22.7252055,77.3765442 L44.0581705,92.4432736 C53.2732178,98.9515403 63.7048519,103.536872 74.730651,105.925676 L80.8243906,107.245921 C93.5462774,110.002192 106.776879,109.265266 119.113983,105.113244 L128.496198,101.955682 C134.385458,99.9736659 140.880526,101.16935 145.677879,105.118677 L146.225206,105.569253 L146.225206,105.569253 L146.225206,45.8488754 Z" id="Path-2" fill="#141414"></path>
                    <path d="M142.418605,97.3448652 L137.474733,64.0596608 C136.237199,55.7278149 131.439133,48.3453469 124.327662,43.8311317 C116.973257,39.1627065 108.590864,36.3591798 99.9076697,35.6637623 L76.7812152,33.8116168 C72.5108433,33.4696123 68.2668618,32.8535446 64.0755046,31.9672218 L50.7168397,29.1423397 C45.8789466,28.1192975 41.1235988,26.7388232 36.4899323,25.0122777 L15.0312665,17.0165875 L15.0312665,17.0165875 L35.5193347,43.7234538 C31.7962439,43.7234538 28.2132472,42.3038378 25.5004697,39.7538881 L24.7700407,39.0673012 L24.7700407,39.0673012 L28.1087172,44.0928102 C31.1287421,48.6386719 34.7178269,52.7795715 38.7886016,56.4147059 L43.8245101,60.9116889 C46.5804499,63.3726975 49.514482,65.6266876 52.6026391,67.6552469 L55.5357442,69.5819551 C58.1226341,71.2812404 59.6804862,74.1684619 59.6804862,77.2635499 C59.6804862,80.1911209 57.720439,82.7562424 54.8957143,83.5253996 L49.9764385,84.8648918 L49.9764385,84.8648918 L52.0617069,85.6026374 C56.8562058,87.2988798 62.170128,86.6317535 66.3965445,83.8029973 C70.628958,80.9702273 75.9406674,80.2742609 80.7600116,81.921025 L105.64276,90.4234303 C110.623524,92.1253514 115.748462,93.3717579 120.954522,94.1473155 L142.418605,97.3448652 L142.418605,97.3448652 Z" id="Path-3-Copy" fill="#ECECEC"></path>
                    <path d="M132.450005,88.29808 L129.277781,69.6848432 C127.757019,60.7616658 121.581197,53.3326744 113.085971,50.2074635 L102.322502,46.2478151 C100.34441,45.5201177 98.3239043,44.9133592 96.2721679,44.4308979 L79.8283937,40.5641804 C79.0928111,40.3912098 78.3542683,40.2310793 77.6131018,40.0838622 L43.4500051,33.29808 L43.4500051,33.29808 L56.407728,54.2218835 C62.2796702,63.7037475 71.1531805,70.9502082 81.6171979,74.8089373 L97.3664718,80.6166668 C102.503578,82.5110349 107.799539,83.9430307 113.191301,84.8956045 L132.450005,88.29808 L132.450005,88.29808 Z" id="Path-3-Copy-2" fill="#F5B6B6"></path>
                    <path d="M127.882732,83.29808 L126.309969,74.5419253 C124.345994,63.6077455 116.423889,54.6944473 105.795712,51.4609764 L93.0809848,47.5927026 C90.0162665,46.6603059 86.9067993,45.8818929 83.7642542,45.2603853 L52.4500051,39.0673012 L52.4500051,39.0673012 L61.8136593,53.4139151 C67.8432025,62.6521383 76.758725,69.6369326 87.1715026,73.2803131 L97.2708332,76.81402 C102.208888,78.5418215 107.285322,79.8452703 112.444934,80.7101925 L127.882732,83.29808 L127.882732,83.29808 Z" id="Path-3" fill="#353535"></path>
                </g>
            </g>
        </g>
    </g>
</svg>