<svg width="115" height="167" viewBox="0 0 115 167" fill="none" xmlns="http://www.w3.org/2000/svg">
<mask id="path-1-inside-1_9_70" fill="white">
<path fill-rule="evenodd" clip-rule="evenodd" d="M88 30.5C88 47.3447 74.3447 61 57.5 61C40.6553 61 27 47.3447 27 30.5C27 13.6553 40.6553 0 57.5 0C74.3447 0 88 13.6553 88 30.5ZM26 100V139C26 154.464 38.536 167 54 167H61C76.464 167 89 154.464 89 139V100H91V135C91 141.627 96.3726 147 103 147C109.627 147 115 141.627 115 135V100V93C115 77.536 102.464 65 87 65H28C12.536 65 0 77.536 0 93V100V135C0 141.627 5.37258 147 12 147C18.6274 147 24 141.627 24 135V100H26Z"/>
</mask>
<path d="M26 100H30V96H26V100ZM89 100V96H85V100H89ZM91 100H95V96H91V100ZM24 100V96H20V100H24ZM57.5 65C76.5538 65 92 49.5538 92 30.5H84C84 45.1355 72.1355 57 57.5 57V65ZM23 30.5C23 49.5538 38.4462 65 57.5 65V57C42.8645 57 31 45.1355 31 30.5H23ZM57.5 -4C38.4462 -4 23 11.4462 23 30.5H31C31 15.8645 42.8645 4 57.5 4V-4ZM92 30.5C92 11.4462 76.5538 -4 57.5 -4V4C72.1355 4 84 15.8645 84 30.5H92ZM22 100V139H30V100H22ZM22 139C22 156.673 36.3269 171 54 171V163C40.7452 163 30 152.255 30 139H22ZM54 171H61V163H54V171ZM61 171C78.6731 171 93 156.673 93 139H85C85 152.255 74.2548 163 61 163V171ZM93 139V100H85V139H93ZM91 96H89V104H91V96ZM95 135V100H87V135H95ZM103 143C98.5817 143 95 139.418 95 135H87C87 143.837 94.1634 151 103 151V143ZM111 135C111 139.418 107.418 143 103 143V151C111.837 151 119 143.837 119 135H111ZM111 100V135H119V100H111ZM111 93V100H119V93H111ZM87 69C100.255 69 111 79.7452 111 93H119C119 75.3269 104.673 61 87 61V69ZM28 69H87V61H28V69ZM4 93C4 79.7452 14.7452 69 28 69V61C10.3269 61 -4 75.3269 -4 93H4ZM4 100V93H-4V100H4ZM4 135V100H-4V135H4ZM12 143C7.58172 143 4 139.418 4 135H-4C-4 143.837 3.16344 151 12 151V143ZM20 135C20 139.418 16.4183 143 12 143V151C20.8366 151 28 143.837 28 135H20ZM20 100V135H28V100H20ZM26 96H24V104H26V96Z" fill="#8F527B" mask="url(#path-1-inside-1_9_70)"/>
</svg>
