<svg width="510" height="492" viewBox="0 0 510 492" fill="none" xmlns="http://www.w3.org/2000/svg">
<path fill-rule="evenodd" clip-rule="evenodd" d="M508.417 246.055L254.709 491.11L1.00008 246.055L254.709 1L508.417 246.055Z" fill="url(#paint0_linear_101_4)" stroke="#696969"/>
<path fill-rule="evenodd" clip-rule="evenodd" d="M137.092 265.388C135.797 262.405 128.676 242.016 132.17 214.592C135.663 187.168 150.274 177.458 160.492 169.833C170.709 162.208 285.92 95.1911 295.333 86.31C299.765 82.1286 320.471 67.0394 323.333 43.4235C324.243 35.9165 318.57 20.7071 315.762 16.4963C312.955 12.2855 343.439 22.366 339.921 42.0787C336.404 61.7913 319.19 75.0445 297.618 91.6049C276.045 108.165 263.266 108.165 260.92 120.51C258.574 132.855 263.486 306.498 267.017 321.133C270.548 335.767 285.248 339.801 291.172 338.595C297.095 337.389 315.762 326.505 318.656 325.99C320.475 325.667 272.346 359.999 265.245 361.874C258.144 363.749 248.623 361.626 245.901 346.972C243.178 332.318 239.519 133.752 236.239 131.095C232.96 128.438 185.567 161.058 179.256 165.833C151.194 187.069 144.458 213.074 141.985 222.603C136.404 244.112 144.441 276.366 143.197 277.173C141.954 277.98 138.388 268.37 137.092 265.388Z" fill="#9C9C9C"/>
<path fill-rule="evenodd" clip-rule="evenodd" d="M156.15 318.788V197.063H192.97C200.41 197.063 233.238 198.39 233.238 228.211C233.238 248.092 222.541 259.491 201.146 262.409L235.974 318.788H225.487L190.944 262.409H164.838V318.788H156.15ZM164.911 255.879V204.497H194.099C214.917 205.685 225.102 214.248 224.653 230.188C224.204 246.128 214.019 254.692 194.099 255.879H164.911Z" fill="#A4ADDC"/>
<path fill-rule="evenodd" clip-rule="evenodd" d="M362.249 197.063V318.788H353.326V276.858L326.918 248.134L285.262 318.788H275.063L321.59 242.26L280.609 197.063H291.165L353.326 265.058V197.063H362.249Z" fill="#B3A5C6"/>
<path fill-rule="evenodd" clip-rule="evenodd" d="M462.078 246.055L254.709 446.352L47.339 246.055L254.709 45.7584L462.078 246.055Z" stroke="#010101" stroke-width="2"/>
<defs>
<linearGradient id="paint0_linear_101_4" x1="381.563" y1="123.528" x2="136.656" y2="377.083" gradientUnits="userSpaceOnUse">
<stop stop-color="#EFF1FF"/>
<stop offset="1" stop-color="#F4E6F9"/>
</linearGradient>
</defs>
</svg>
