<svg width="603" height="603" viewBox="0 0 603 603" fill="none" xmlns="http://www.w3.org/2000/svg">
<circle cx="301.5" cy="301.5" r="301.5" fill="url(#paint0_linear_101_4)"/>
<path fill-rule="evenodd" clip-rule="evenodd" d="M184.092 320.388C182.796 317.405 175.676 297.016 179.17 269.592C182.663 242.168 197.274 232.458 207.492 224.833C217.709 217.208 332.92 150.191 342.333 141.31C346.765 137.129 367.471 122.039 370.333 98.4235C371.243 90.9165 365.57 75.7071 362.762 71.4963C359.955 67.2855 390.438 77.366 386.921 97.0787C383.404 116.791 366.19 130.044 344.618 146.605C323.045 163.165 310.266 163.165 307.92 175.51C305.574 187.855 310.486 361.498 314.017 376.133C317.548 390.767 332.248 394.801 338.171 393.595C344.095 392.389 362.762 381.505 365.656 380.99C367.475 380.667 319.346 414.999 312.245 416.874C305.144 418.749 295.623 416.626 292.9 401.972C290.178 387.318 286.519 188.752 283.239 186.095C279.96 183.438 232.566 216.058 226.256 220.833C198.194 242.069 191.458 268.074 188.985 277.603C183.404 299.112 191.441 331.366 190.197 332.173C188.954 332.98 185.388 323.37 184.092 320.388Z" fill="#9C9C9C"/>
<path fill-rule="evenodd" clip-rule="evenodd" d="M203.15 373.788V252.063H239.97C247.41 252.063 280.238 253.39 280.238 283.211C280.238 303.092 269.541 314.491 248.146 317.409L282.974 373.788H272.487L237.944 317.409H211.838V373.788H203.15ZM211.911 310.879V259.497H241.099C261.917 260.685 272.102 269.248 271.653 285.188C271.203 301.128 261.019 309.692 241.099 310.879H211.911Z" fill="#A4ADDC"/>
<path fill-rule="evenodd" clip-rule="evenodd" d="M409.249 252.063V373.788H400.326V331.858L373.918 303.134L332.262 373.788H322.063L368.59 297.26L327.609 252.063H338.165L400.326 320.058V252.063H409.249Z" fill="#B3A5C6"/>
<path fill-rule="evenodd" clip-rule="evenodd" d="M509.078 301.055L301.709 501.352L94.3389 301.055L301.709 100.758L509.078 301.055Z" stroke="#010101" stroke-width="2"/>
<path fill-rule="evenodd" clip-rule="evenodd" d="M555.417 301.055L301.709 546.11L48 301.055L301.709 56L555.417 301.055Z" stroke="#696969"/>
<defs>
<linearGradient id="paint0_linear_101_4" x1="301.5" y1="0" x2="301.5" y2="603" gradientUnits="userSpaceOnUse">
<stop stop-color="#FDEFFF"/>
<stop offset="1" stop-color="#EFF1FF" stop-opacity="0.33"/>
</linearGradient>
</defs>
</svg>
