<?xml version="1.0" encoding="UTF-8"?>
<svg width="179px" height="191px" viewBox="0 0 179 191" version="1.1" xmlns="http://www.w3.org/2000/svg" xmlns:xlink="http://www.w3.org/1999/xlink">
    <title>assistant</title>
    <g id="Page-1" stroke="none" stroke-width="1" fill="none" fill-rule="evenodd">
        <g id="Mobile" transform="translate(-6.000000, -557.000000)" stroke="#979797">
            <g id="assistant" transform="translate(6.025298, 557.505425)">
                <rect id="Rectangle" fill="#C4C4C4" x="91.3109036" y="47.4032521" width="43.6697639" height="63.0266616"></rect>
                <rect id="Rectangle" fill="#D8D8D8" x="46.6411397" y="90.5840239" width="131.5203" height="98.7624727" rx="13"></rect>
                <path d="M149.282526,0.5 C152.734306,0.5 155.859306,1.89911016 158.121361,4.16116524 C160.383416,6.42322031 161.782526,9.54822031 161.782526,13 L161.782526,13 L161.782526,53.1037167 L63.0200532,53.1037167 L63.0200532,13 C63.0200532,9.54822031 64.4191633,6.42322031 66.6812184,4.16116524 C68.9432735,1.89911016 72.0682735,0.5 75.5200532,0.5 L75.5200532,0.5 Z" id="Rectangle-Copy-8" fill="#C4C4C4"></path>
                <circle id="Oval" fill="#FFFFFF" cx="142.181132" cy="28.2908505" r="6.20046458"></circle>
                <circle id="Oval-Copy-2" fill="#FFFFFF" cx="84.1104391" cy="28.2908505" r="6.20046458"></circle>
                <path d="M161.474702,52.9945747 L161.474702,62.4945747 C161.474702,66.2224968 159.963663,69.5974968 157.520643,72.0405163 C155.077624,74.4835358 151.702624,75.9945747 147.974702,75.9945747 L147.974702,75.9945747 L76.9747018,75.9945747 C73.2467797,75.9945747 69.8717797,74.4835358 67.4287602,72.0405163 C64.9857407,69.5974968 63.4747018,66.2224968 63.4747018,62.4945747 L63.4747018,62.4945747 L63.4747018,52.9945747 L161.474702,52.9945747 Z" id="Rectangle" fill="#D8D8D8"></path>
                <g id="arm-segment" transform="translate(36.832401, 127.622930) rotate(40.000000) translate(-36.832401, -127.622930) translate(24.832401, 84.622930)">
                    <rect id="Rectangle" fill="#C4C4C4" x="0.5" y="0.5" width="23" height="85" rx="11"></rect>
                    <circle id="Oval" fill="#D8D8D8" cx="12" cy="9.50542528" r="4.5"></circle>
                </g>
            </g>
        </g>
    </g>
</svg>