<?xml version="1.0" encoding="UTF-8"?>
<svg width="179px" height="191px" viewBox="0 0 179 191" version="1.1" xmlns="http://www.w3.org/2000/svg" xmlns:xlink="http://www.w3.org/1999/xlink">
    <title>assistant-angry</title>
    <g id="Page-1" stroke="none" stroke-width="1" fill="none" fill-rule="evenodd">
        <g id="Mobile" transform="translate(-344.000000, -581.000000)" stroke="#979797">
            <g id="assistant-angry" transform="translate(344.025298, 581.505425)">
                <rect id="Rectangle" fill="#C4C4C4" x="91.3109036" y="47.4032521" width="43.6697639" height="63.0266616"></rect>
                <rect id="Rectangle" fill="#D8D8D8" x="46.6411397" y="90.5840239" width="131.5203" height="98.7624727" rx="13"></rect>
                <path d="M149.282526,0.5 C152.734306,0.5 155.859306,1.89911016 158.121361,4.16116524 C160.383416,6.42322031 161.782526,9.54822031 161.782526,13 L161.782526,13 L161.782526,53.1037167 L63.0200532,53.1037167 L63.0200532,13 C63.0200532,9.54822031 64.4191633,6.42322031 66.6812184,4.16116524 C68.9432735,1.89911016 72.0682735,0.5 75.5200532,0.5 L75.5200532,0.5 Z" id="Rectangle-Copy-8" fill="#C4C4C4"></path>
                <path d="M72.9684923,22.4388373 C74.9384713,21.8634808 77.8302959,21.9691125 80.1410517,22.0447485 C80.8676665,22.0685321 81.5387552,22.0903859 82.1104391,22.0903859 C83.8226501,22.0903859 85.3727662,22.7843965 86.4948296,23.9064599 C87.616893,25.0285233 88.3109036,26.5786395 88.3109036,28.2908505 C88.3109036,30.0030615 87.616893,31.5531776 86.4948296,32.675241 C85.3727662,33.7973044 83.8226501,34.4913151 82.1104391,34.4913151 C80.2979263,34.4913151 77.4569115,32.710163 75.1008802,30.5516535 C72.8698147,28.5076331 71.0093725,26.0845188 71.0093725,24.3628431 C71.0093725,23.9030716 71.1666247,23.5354624 71.4474292,23.2443639 C71.8041732,22.8745422 72.3370975,22.6232438 72.9684923,22.4388373 Z" id="Oval-Copy-2" fill="#FF7D7D" transform="translate(79.660138, 28.239069) rotate(20.000000) translate(-79.660138, -28.239069) "></path>
                <path d="M139.968492,22.4388373 C141.938471,21.8634808 144.830296,21.9691125 147.141052,22.0447485 C147.867666,22.0685321 148.538755,22.0903859 149.110439,22.0903859 C150.82265,22.0903859 152.372766,22.7843965 153.49483,23.9064599 C154.616893,25.0285233 155.310904,26.5786395 155.310904,28.2908505 C155.310904,30.0030615 154.616893,31.5531776 153.49483,32.675241 C152.372766,33.7973044 150.82265,34.4913151 149.110439,34.4913151 C147.297926,34.4913151 144.456911,32.710163 142.10088,30.5516535 C139.869815,28.5076331 138.009373,26.0845188 138.009373,24.3628431 C138.009373,23.9030716 138.166625,23.5354624 138.447429,23.2443639 C138.804173,22.8745422 139.337098,22.6232438 139.968492,22.4388373 Z" id="Oval-Copy-3" fill="#FF7D7D" transform="translate(146.660138, 28.239069) scale(-1, 1) rotate(20.000000) translate(-146.660138, -28.239069) "></path>
                <path d="M161.474702,52.9945747 L161.474702,62.4945747 C161.474702,66.2224968 159.963663,69.5974968 157.520643,72.0405163 C155.077624,74.4835358 151.702624,75.9945747 147.974702,75.9945747 L147.974702,75.9945747 L76.9747018,75.9945747 C73.2467797,75.9945747 69.8717797,74.4835358 67.4287602,72.0405163 C64.9857407,69.5974968 63.4747018,66.2224968 63.4747018,62.4945747 L63.4747018,62.4945747 L63.4747018,52.9945747 L161.474702,52.9945747 Z" id="Rectangle" fill="#D8D8D8"></path>
                <g id="arm-segment" transform="translate(36.832401, 127.622930) rotate(40.000000) translate(-36.832401, -127.622930) translate(24.832401, 84.622930)">
                    <rect id="Rectangle" fill="#C4C4C4" x="0.5" y="0.5" width="23" height="85" rx="11"></rect>
                    <circle id="Oval" fill="#D8D8D8" cx="12" cy="9.50542528" r="4.5"></circle>
                </g>
            </g>
        </g>
    </g>
</svg>