<svg width="182" height="371" viewBox="0 0 182 371" fill="none" xmlns="http://www.w3.org/2000/svg">
<path d="M72 0.5C65.6667 10.8333 58.1 33.8 32.5 9L26.1403 31.7132C23.4785 41.2197 24.4997 51.3804 29.0002 60.167C31.0974 64.2615 35.5491 66.588 40.108 65.9719L74.3173 61.349C83.4014 60.1214 92.6057 60.0663 101.704 61.1849L149 67C148.333 62.6667 148 51.2 152 40C157 26 126 42 127.5 26C129 10 106 18.5 101 12C97 6.8 79.5 3 72 0.5Z" fill="black"/>
<mask id="path-2-inside-1_9_150" fill="white">
<path fill-rule="evenodd" clip-rule="evenodd" d="M32.9083 68.5363C30.3815 75.8387 29 83.745 29 92C29 129.003 56.7583 159 91 159C125.242 159 153 129.003 153 92C153 83.7617 151.624 75.8708 149.107 68.5808L94.8634 62.7391C90.3023 62.248 85.7005 62.2728 81.145 62.8133L32.9083 68.5363Z"/>
</mask>
<path d="M32.9083 68.5363L32.2014 62.5781L28.4677 63.0211L27.2382 66.5743L32.9083 68.5363ZM149.107 68.5808L154.779 66.6226L153.536 63.023L149.75 62.6153L149.107 68.5808ZM94.8634 62.7391L94.2209 68.7046L94.8634 62.7391ZM81.145 62.8133L81.8519 68.7715V68.7715L81.145 62.8133ZM35 92C35 84.4168 36.2687 77.1734 38.5784 70.4983L27.2382 66.5743C24.4943 74.504 23 83.0732 23 92H35ZM91 153C60.5018 153 35 126.136 35 92H23C23 131.87 53.0149 165 91 165V153ZM147 92C147 126.136 121.498 153 91 153V165C128.985 165 159 131.87 159 92H147ZM143.436 70.539C145.736 77.2028 147 84.4322 147 92H159C159 83.0913 157.512 74.5388 154.779 66.6226L143.436 70.539ZM149.75 62.6153L95.5058 56.7736L94.2209 68.7046L148.465 74.5463L149.75 62.6153ZM95.5058 56.7736C90.4962 56.2341 85.4416 56.2615 80.4381 56.8551L81.8519 68.7715C85.9593 68.2842 90.1085 68.2618 94.2209 68.7046L95.5058 56.7736ZM80.4381 56.8551L32.2014 62.5781L33.6152 74.4945L81.8519 68.7715L80.4381 56.8551Z" fill="black" mask="url(#path-2-inside-1_9_150)"/>
<rect x="3" y="171" width="176" height="197" rx="58" fill="black" stroke="black" stroke-width="6"/>
<path d="M90.5 202L122.976 176.5H58.024L90.5 202Z" fill="#AEAEAE"/>
<path d="M77 208H103L113 335L91 350.5L69 335L77 208Z" fill="#C00606"/>
</svg>
