<svg width="259" height="110" viewBox="0 0 259 110" fill="none" xmlns="http://www.w3.org/2000/svg">
<mask id="path-1-inside-1_9_138" fill="white">
<path fill-rule="evenodd" clip-rule="evenodd" d="M259 0H0V95H259V0ZM190 21H69V60H190V21Z"/>
</mask>
<path d="M0 0V-7H-7V0H0ZM259 0H266V-7H259V0ZM0 95H-7V102H0V95ZM259 95V102H266V95H259ZM69 21V14H62V21H69ZM190 21H197V14H190V21ZM69 60H62V67H69V60ZM190 60V67H197V60H190ZM0 7H259V-7H0V7ZM7 95V0H-7V95H7ZM259 88H0V102H259V88ZM252 0V95H266V0H252ZM69 28H190V14H69V28ZM76 60V21H62V60H76ZM190 53H69V67H190V53ZM183 21V60H197V21H183Z" fill="black" mask="url(#path-1-inside-1_9_138)"/>
<rect x="3.5" y="93.5" width="252" height="13" stroke="black" stroke-width="7"/>
</svg>
