<svg width="259" height="109" viewBox="0 0 259 109" fill="none" xmlns="http://www.w3.org/2000/svg">
<mask id="path-1-inside-1_9_137" fill="white">
<path fill-rule="evenodd" clip-rule="evenodd" d="M259 0H0V95H259V0ZM196.684 58.75L130 25L63.316 58.75H196.684Z"/>
</mask>
<path d="M0 0V-7H-7V0H0ZM259 0H266V-7H259V0ZM0 95H-7V102H0V95ZM259 95V102H266V95H259ZM130 25L133.161 18.7544L130 17.1545L126.839 18.7544L130 25ZM196.684 58.75V65.75L199.845 52.5044L196.684 58.75ZM63.316 58.75L60.155 52.5044L63.316 65.75V58.75ZM0 7H259V-7H0V7ZM7 95V0H-7V95H7ZM259 88H0V102H259V88ZM252 0V95H266V0H252ZM126.839 31.2456L193.523 64.9956L199.845 52.5044L133.161 18.7544L126.839 31.2456ZM66.4771 64.9956L133.161 31.2456L126.839 18.7544L60.155 52.5044L66.4771 64.9956ZM196.684 51.75H63.316V65.75H196.684V51.75Z" fill="black" mask="url(#path-1-inside-1_9_137)"/>
<rect x="3.5" y="92.5" width="252" height="13" stroke="black" stroke-width="7"/>
</svg>
