<svg width="212" height="142" viewBox="0 0 212 142" fill="none" xmlns="http://www.w3.org/2000/svg">
<rect x="1.5" y="1.5" width="209" height="139" rx="23.5" stroke="black" stroke-width="3"/>
<rect x="97" y="8" width="17" height="15" stroke="black" stroke-width="2"/>
<rect x="70" y="8" width="17" height="15" stroke="black" stroke-width="2"/>
<rect x="43" y="8" width="17" height="15" stroke="black" stroke-width="2"/>
<rect x="16" y="8" width="17" height="15" stroke="black" stroke-width="2"/>
<rect x="124" y="8" width="17" height="15" stroke="black" stroke-width="2"/>
<rect x="151" y="8" width="17" height="15" stroke="black" stroke-width="2"/>
<rect x="178" y="8" width="17" height="15" stroke="black" stroke-width="2"/>
<rect x="97" y="117" width="17" height="15" stroke="black" stroke-width="2"/>
<rect x="70" y="117" width="17" height="15" stroke="black" stroke-width="2"/>
<rect x="43" y="117" width="17" height="15" stroke="black" stroke-width="2"/>
<rect x="16" y="117" width="17" height="15" stroke="black" stroke-width="2"/>
<rect x="124" y="117" width="17" height="15" stroke="black" stroke-width="2"/>
<rect x="151" y="117" width="17" height="15" stroke="black" stroke-width="2"/>
<rect x="178" y="117" width="17" height="15" stroke="black" stroke-width="2"/>
<path d="M133.663 76.7148L96.2212 96.1211C91.5616 98.5361 86 95.1545 86 89.9062V51.0938C86 45.8455 91.5616 42.4639 96.2212 44.8789L133.663 64.2852C138.701 66.8966 138.701 74.1034 133.663 76.7148Z" stroke="black" stroke-width="4"/>
</svg>
