<?xml version="1.0" encoding="UTF-8"?>
<svg width="415px" height="349px" viewBox="0 0 415 349" version="1.1" xmlns="http://www.w3.org/2000/svg" xmlns:xlink="http://www.w3.org/1999/xlink">
    <title>webbuilder-bg</title>
    <g id="Page-1" stroke="none" stroke-width="1" fill="none" fill-rule="evenodd">
        <g id="Mobile" transform="translate(-71.000000, -116.000000)">
            <g id="webbuilder-bg" transform="translate(278.343369, 290.500000) scale(-1, 1) translate(-278.343369, -290.500000) translate(71.000000, 116.000000)">
                <rect id="Rectangle" stroke="#979797" fill="#9A9A9A" x="0.5" y="125.5" width="11" height="38" rx="5.5"></rect>
                <rect id="Rectangle" fill="#777777" x="6.68673756" y="62" width="408" height="287" rx="56"></rect>
                <path d="M381.756236,1.5 C382.998876,1.5 384.123876,2.00367966 384.938216,2.81801948 C385.752556,3.63235931 386.256236,4.75735931 386.256236,6 C386.256236,7.06378267 385.879375,8.09316913 385.192527,8.90549516 L385.192527,8.90549516 L354.989063,44.6267387 L354.989063,61 C354.989063,63.8994949 353.813811,66.5244949 351.913684,68.4246212 C350.013558,70.3247475 347.388558,71.5 344.489063,71.5 L344.489063,71.5 L298.884412,71.5 C295.984917,71.5 293.359917,70.3247475 291.459791,68.4246212 C289.559665,66.5244949 288.384412,63.8994949 288.384412,61 L288.384412,61 L288.384412,44.6267387 L258.180948,8.90549516 C257.378618,7.95658952 257.036864,6.77230807 257.132919,5.62467045 C257.228974,4.47703283 257.762839,3.36603903 258.711744,2.5637087 C259.52407,1.87686083 260.553457,1.5 261.617239,1.5 L261.617239,1.5 Z" id="Rectangle" stroke="#777777" stroke-width="3" fill="#D8D8D8"></path>
            </g>
        </g>
    </g>
</svg>