<?xml version="1.0" encoding="UTF-8"?>
<svg width="415px" height="349px" viewBox="0 0 415 349" version="1.1" xmlns="http://www.w3.org/2000/svg" xmlns:xlink="http://www.w3.org/1999/xlink">
    <title>webbuilder-bg copy</title>
    <g id="Page-1" stroke="none" stroke-width="1" fill="none" fill-rule="evenodd">
        <g id="Mobile" transform="translate(-609.000000, -116.000000)">
            <g id="webbuilder-bg-copy" transform="translate(816.343369, 290.500000) scale(-1, 1) translate(-816.343369, -290.500000) translate(609.000000, 116.000000)">
                <path d="M381.756236,0.5 C383.275019,0.5 384.650019,1.11560847 385.645323,2.1109127 C386.640627,3.10621694 387.256236,4.48121694 387.256236,6 C387.256236,7.30017882 386.795628,8.55831782 385.956147,9.55116075 L385.956147,9.55116075 L355.989063,44.9928411 L355.989063,61 C355.989063,64.1756373 354.701882,67.0506373 352.620791,69.131728 C350.5397,71.2128187 347.6647,72.5 344.489063,72.5 L344.489063,72.5 L298.884412,72.5 C295.708775,72.5 292.833775,71.2128187 290.752684,69.131728 C288.671593,67.0506373 287.384412,64.1756373 287.384412,61 L287.384412,61 L287.384412,44.9928411 L257.417328,9.55116075 C256.436702,8.39138719 256.019003,6.94393208 256.136404,5.54126388 C256.253804,4.13859568 256.906305,2.78071437 258.066079,1.80008841 C259.058922,0.960607687 260.317061,0.5 261.617239,0.5 L261.617239,0.5 Z" id="Rectangle" stroke="#777777" fill="#D8D8D8"></path>
                <rect id="Rectangle" stroke="#979797" fill="#D8D8D8" x="0.5" y="125.5" width="11" height="38" rx="5.5"></rect>
                <text id="D8D8D8" font-family="SourceCodePro-Light, Source Code Pro" font-size="14" font-weight="300" fill="#585858">
                    <tspan x="322.986738" y="270">D8D8D8</tspan>
                </text>
                <rect id="Rectangle" stroke="#979797" fill="#D8D8D8" x="7.18673756" y="62.5" width="407" height="286" rx="56"></rect>
            </g>
        </g>
    </g>
</svg>